# 3ds Max Wavefront OBJ Exporter v0.97b - (c)2007 guruware
# File Created: 19.11.2017 15:17:23

mtllib altar.mtl

#
# object altar
#

v  418.6589 0.0000 298.1060
v  418.6589 0.0000 228.1060
v  551.6589 0.0000 228.1060
v  551.6589 0.0000 298.1060
v  415.0748 72.9754 302.1059
v  557.0878 72.9754 302.1059
v  557.0878 72.9754 223.1060
v  415.0748 72.9754 223.1060
v  551.5441 61.7138 298.1059
v  418.5440 61.7138 298.1059
v  418.5826 38.2757 298.1060
v  551.5826 38.2757 298.1060
v  551.5826 38.2757 228.1060
v  551.5441 61.7138 228.1059
v  418.5440 61.7138 228.1059
v  418.5826 38.2757 228.1060
v  557.0878 64.3901 302.1059
v  415.0748 64.3901 302.1059
v  557.0878 64.3901 223.1060
v  415.0748 64.3901 223.1060
# 20 vertices

vn 0.0000 -1.0000 -0.0000
vn 0.0000 1.0000 -0.0000
vn 0.0000 -0.5277 0.8494
vn 0.0000 -0.5079 0.8614
vn -0.0000 0.0000 1.0000
vn 0.0000 0.0000 1.0000
vn 1.0000 0.0016 -0.0000
vn 0.8076 -0.5897 -0.0000
vn 0.8155 -0.5787 -0.0000
vn 1.0000 0.0017 -0.0000
vn 0.0000 -0.5540 -0.8325
vn 0.0000 -0.5758 -0.8176
vn 0.0000 -0.0000 -1.0000
vn 0.0000 0.0000 -1.0000
vn -0.8767 -0.4811 -0.0000
vn -0.8718 -0.4899 -0.0000
vn -1.0000 -0.0016 -0.0000
vn -1.0000 -0.0017 -0.0000
vn 0.0000 -0.7888 0.6147
vn 0.4901 -0.8717 -0.0000
vn 0.0000 -0.8486 -0.5291
vn -0.6684 -0.7438 -0.0000
vn 1.0000 0.0000 -0.0000
vn -1.0000 0.0000 -0.0000
# 24 vertex normals

vt 1.0000 0.0000 0.0000
vt 1.0000 1.0000 0.0000
vt 0.0000 1.0000 0.0000
vt 0.0000 0.0000 0.0000
vt 0.9575 0.2560 0.5000
vt 0.0485 0.2560 0.5000
vt 0.0485 0.7440 0.5000
vt 0.9575 0.7440 0.5000
vt 1.0000 0.6032 0.0000
vt 0.0000 0.6032 0.0000
vt 0.0000 0.4008 0.0000
vt 1.0000 0.4008 0.0000
vt 0.0529 0.4419 0.0718
vt 0.9434 0.4419 0.0718
vt 0.9434 0.5581 0.0718
vt 0.0529 0.5581 0.0718
vt 0.0718 0.4419 0.9434
vt 0.9282 0.4419 0.9434
vt 0.9282 0.5581 0.9434
vt 0.0718 0.5581 0.9434
vt 0.0566 0.4419 0.9282
vt 0.9471 0.4419 0.9282
vt 0.9471 0.5581 0.9282
vt 0.0566 0.5581 0.9282
vt 0.0718 0.4419 0.0529
vt 0.9282 0.4419 0.0529
vt 0.9282 0.5581 0.0529
vt 0.0718 0.5581 0.0529
# 28 texture coords

g altar
usemtl altar_rock
f 1/1/1 2/2/1 3/3/1 
f 3/3/1 4/4/1 1/1/1 
usemtl runes
f 5/5/2 6/6/2 7/7/2 
f 7/7/2 8/8/2 5/5/2 
usemtl altar_rock
f 9/9/3 10/10/4 11/11/5 
f 12/12/6 9/9/3 11/11/5 
f 12/12/6 11/11/5 1/4/6 
f 12/12/6 1/4/6 4/1/6 
f 13/12/7 14/9/8 9/10/9 
f 13/12/7 9/10/9 12/11/7 
f 13/12/7 12/11/7 4/4/10 
f 13/12/7 4/4/10 3/1/10 
f 15/9/11 14/10/12 13/11/13 
f 16/12/13 15/9/11 13/11/13 
f 16/12/13 13/11/13 3/4/14 
f 16/12/13 3/4/14 2/1/14 
f 10/9/15 15/10/16 16/11/17 
f 11/12/17 10/9/15 16/11/17 
f 11/12/17 16/11/17 2/4/18 
f 11/12/17 2/4/18 1/1/18 
f 17/2/19 18/3/19 10/10/4 
f 10/10/4 9/9/3 17/2/19 
f 19/2/20 17/3/20 9/10/9 
f 9/10/9 14/9/8 19/2/20 
f 20/2/21 19/3/21 14/10/12 
f 14/10/12 15/9/11 20/2/21 
f 10/9/15 18/2/22 20/3/22 
f 20/3/22 15/10/16 10/9/15 
usemtl runes
f 18/13/6 17/14/6 6/15/6 
f 6/15/6 5/16/6 18/13/6 
f 17/17/23 19/18/23 7/19/23 
f 7/19/23 6/20/23 17/17/23 
f 19/21/14 20/22/14 8/23/14 
f 8/23/14 7/24/14 19/21/14 
f 20/25/24 18/26/24 5/27/24 
f 5/27/24 8/28/24 20/25/24 
# 36 faces

