# 3ds Max Wavefront OBJ Exporter v0.97b - (c)2007 guruware
# File Created: 19.11.2017 15:10:01

mtllib archerReliefWall.mtl

#
# object brick_wall_x1_archers_relief
#

v  -69.1916 235.6800 441.3855
v  -226.6215 235.6800 441.3855
v  -226.6216 67.6800 441.3855
v  -69.1915 67.6800 441.3855
v  -69.1915 0.0000 452.5298
v  -46.3322 0.0000 452.5298
v  -46.3322 67.6800 452.5298
v  -226.6215 300.0000 452.5298
v  -246.3322 300.0000 452.5298
v  -246.3322 235.6800 452.5298
v  -226.6215 235.6800 452.5298
v  -69.1916 300.0000 452.5298
v  -69.1916 235.6800 452.5298
v  -46.3322 300.0000 452.5298
v  -46.3322 235.6800 452.5298
v  -69.1915 67.6800 452.5298
v  -226.6216 0.0000 452.5298
v  -226.6216 67.6800 452.5298
v  -246.3322 0.0000 452.5298
v  -246.3322 67.6800 452.5298
# 20 vertices

vn 0.0000 -0.0000 1.0000
vn -1.0000 -0.0000 -0.0000
vn -0.0000 -1.0000 -0.0000
vn 1.0000 -0.0000 -0.0000
vn -0.0000 1.0000 0.0000
# 5 vertex normals

vt 0.9920 1.0250 0.5000
vt 0.0080 1.0250 0.5000
vt 0.0080 -0.0250 0.5000
vt 0.9920 -0.0250 0.5000
vt 0.9076 0.9782 0.5000
vt 1.0219 0.9782 0.5000
vt 1.0219 0.6398 0.5000
vt 0.1204 -0.5218 0.5000
vt 0.0219 -0.5218 0.5000
vt 0.0219 -0.2002 0.5000
vt 0.1204 -0.2002 0.5000
vt 0.9076 -0.5218 0.5000
vt 0.9076 -0.2002 0.5000
vt 1.0219 -0.5218 0.5000
vt 1.0219 -0.2002 0.5000
vt 0.9076 0.6398 0.5000
vt 0.1204 0.9782 0.5000
vt 0.1204 0.6398 0.5000
vt 0.0219 0.9782 0.5000
vt 0.0219 0.6398 0.5000
vt 0.4800 0.9753 0.5000
vt 0.4800 0.1353 0.5000
vt 0.4243 0.1353 0.5000
vt 0.4243 0.9753 0.5000
vt 0.2827 0.5279 0.5000
vt 1.0698 0.5279 0.5000
vt 1.0698 0.4721 0.5000
vt 0.2827 0.4721 0.5000
vt 0.4413 -0.1938 0.5000
vt 0.4413 0.6462 0.5000
vt 0.4971 0.6462 0.5000
vt 0.4971 -0.1938 0.5000
vt 1.0711 0.5279 0.5000
vt 0.2840 0.5279 0.5000
vt 0.2840 0.4721 0.5000
vt 1.0711 0.4721 0.5000
# 36 texture coords

g brick_wall_x1_archers_relief
usemtl archer_relied
f 1/1/1 2/2/1 3/3/1 
f 3/3/1 4/4/1 1/1/1 
usemtl wallOldBrick
f 5/5/1 6/6/1 7/7/1 
f 8/8/1 9/9/1 10/10/1 
f 8/8/1 10/10/1 11/11/1 
f 12/12/1 8/8/1 11/11/1 
f 12/12/1 11/11/1 13/13/1 
f 14/14/1 12/12/1 13/13/1 
f 15/15/1 14/14/1 13/13/1 
f 15/15/1 13/13/1 16/16/1 
f 7/7/1 15/15/1 16/16/1 
f 5/5/1 7/7/1 16/16/1 
f 17/17/1 5/5/1 16/16/1 
f 17/17/1 16/16/1 18/18/1 
f 19/19/1 17/17/1 18/18/1 
f 20/20/1 19/19/1 18/18/1 
f 20/20/1 18/18/1 11/11/1 
f 10/10/1 20/20/1 11/11/1 
f 16/21/2 13/22/2 1/23/2 
f 1/23/2 4/24/2 16/21/2 
f 13/25/3 11/26/3 2/27/3 
f 2/27/3 1/28/3 13/25/3 
f 11/29/4 18/30/4 3/31/4 
f 3/31/4 2/32/4 11/29/4 
f 18/33/5 16/34/5 4/35/5 
f 4/35/5 3/36/5 18/33/5 
# 26 faces

