# 3ds Max Wavefront OBJ Exporter v0.97b - (c)2007 guruware
# File Created: 15.02.2018 22:37:38

mtllib battleReliefWall.mtl

#
# object battleReliefWall
#

v  654.2369 0.6022 456.2075
v  717.8333 0.6022 456.2075
v  717.8333 66.8389 456.2075
v  654.2369 66.8389 456.2075
v  863.5164 0.6022 456.2075
v  863.5164 66.8389 456.2075
v  1034.1532 0.6022 456.2075
v  1034.1532 66.8389 456.2075
v  1189.3970 0.6022 456.2075
v  1189.3970 66.8389 456.2075
v  1254.2369 0.6022 456.2075
v  1254.2369 66.8389 456.2075
v  717.8333 235.4898 456.2075
v  654.2369 235.4898 456.2075
v  717.8333 66.8389 446.2075
v  863.5164 66.8389 446.2075
v  863.5164 235.4898 446.2075
v  717.8333 235.4898 446.2075
v  1034.1532 66.8389 446.2075
v  1034.1532 235.4898 446.2075
v  1189.3970 66.8389 446.2075
v  1189.3970 235.4898 446.2075
v  1254.2369 235.4898 456.2075
v  1189.3970 235.4898 456.2075
v  717.8333 300.6022 456.2075
v  654.2369 300.6022 456.2075
v  863.5164 235.4898 456.2075
v  863.5164 300.6022 456.2075
v  1034.1532 235.4898 456.2075
v  1034.1532 300.6022 456.2075
v  1189.3970 300.6022 456.2075
v  1254.2369 300.6022 456.2075
# 32 vertices

vn -0.0000 -0.0000 1.0000
vn 0.0000 -0.0000 1.0000
vn 0.0000 1.0000 0.0000
vn -1.0000 0.0000 -0.0000
vn 0.0000 -1.0000 -0.0000
vn 1.0000 0.0000 -0.0000
# 6 vertex normals

vt 1.0217 -0.2005 1.0000
vt 1.3397 -0.2005 1.0000
vt 1.3397 0.1307 1.0000
vt 1.0217 0.1307 1.0000
vt 2.0681 -0.2005 1.0000
vt 2.0681 0.1307 1.0000
vt 2.9213 -0.2005 1.0000
vt 2.9213 0.1307 1.0000
vt 3.6975 -0.2005 1.0000
vt 3.6975 0.1307 1.0000
vt 4.0217 -0.2005 1.0000
vt 4.0217 0.1307 1.0000
vt 1.3397 0.9739 1.0000
vt 1.0217 0.9739 1.0000
vt -0.0000 0.0000 1.0000
vt 1.0000 0.0000 1.0000
vt 1.0000 1.0000 0.0000
vt 0.0000 1.0000 0.0000
vt 1.0000 -0.0000 1.0000
vt 0.0000 0.0000 1.0000
vt 4.0217 0.9739 1.0000
vt 3.6975 0.9739 1.0000
vt 1.3397 1.2995 1.0000
vt 1.0217 1.2995 1.0000
vt 2.0681 0.9739 1.0000
vt 2.0681 1.2995 1.0000
vt 2.9213 0.9739 1.0000
vt 2.9213 1.2995 1.0000
vt 3.6975 1.2995 1.0000
vt 4.0217 1.2995 1.0000
vt -1.1647 0.5200 0.5000
vt -0.4363 0.5200 0.5000
vt -0.4363 0.4800 0.5000
vt -1.1647 0.4800 0.5000
vt 0.4169 0.5200 0.5000
vt 0.4169 0.4800 0.5000
vt 1.1931 0.5200 0.5000
vt 1.1931 0.4800 0.5000
vt 0.4629 0.1277 0.5000
vt 0.4629 0.9710 0.5000
vt 0.5129 0.9710 0.5000
vt 0.5129 0.1277 0.5000
vt 1.1861 0.5188 0.6710
vt 0.4184 0.5188 0.6710
vt 0.4184 0.4812 0.3290
vt 1.1861 0.4812 0.3290
vt -0.4254 0.5188 0.6710
vt -0.4254 0.4812 0.3290
vt -1.1458 0.5188 0.6710
vt -1.1458 0.4812 0.3290
vt 0.4750 1.8086 0.5000
vt 0.4750 0.9653 0.5000
vt 0.5250 0.9653 0.5000
vt 0.5250 1.8086 0.5000
# 54 texture coords

g battleReliefWall
usemtl wallOldBrick
f 1/1/1 2/2/1 3/3/1 
f 3/3/1 4/4/2 1/1/1 
f 2/2/1 5/5/2 6/6/2 
f 6/6/2 3/3/1 2/2/1 
f 5/5/2 7/7/2 8/8/2 
f 8/8/2 6/6/2 5/5/2 
f 7/7/2 9/9/2 10/10/1 
f 10/10/1 8/8/2 7/7/2 
f 9/9/2 11/11/2 12/12/2 
f 12/12/2 10/10/1 9/9/2 
f 4/4/2 3/3/1 13/13/2 
f 13/13/2 14/14/2 4/4/2 
usemtl batte1Relief
f 15/15/2 16/16/2 17/17/2 
f 17/17/2 18/18/2 15/15/2 
usemtl battle2Relief
f 16/15/2 19/19/2 20/17/2 
f 20/17/2 17/18/2 16/15/2 
usemtl battle3Relief
f 19/20/2 21/19/2 22/17/2 
f 22/17/2 20/18/2 19/20/2 
usemtl wallOldBrick
f 10/10/1 12/12/2 23/21/1 
f 23/21/1 24/22/1 10/10/1 
f 14/14/2 13/13/2 25/23/2 
f 25/23/2 26/24/1 14/14/2 
f 13/13/2 27/25/2 28/26/2 
f 28/26/2 25/23/2 13/13/2 
f 27/25/2 29/27/2 30/28/2 
f 30/28/2 28/26/2 27/25/2 
f 29/27/2 24/22/1 31/29/2 
f 31/29/2 30/28/2 29/27/2 
f 24/22/1 23/21/1 32/30/1 
f 32/30/1 31/29/2 24/22/1 
f 3/31/3 6/32/3 16/33/3 
f 16/33/3 15/34/3 3/31/3 
f 6/32/3 8/35/3 19/36/3 
f 19/36/3 16/33/3 6/32/3 
f 8/35/3 10/37/3 21/38/3 
f 21/38/3 19/36/3 8/35/3 
f 10/39/4 24/40/4 22/41/4 
f 22/41/4 21/42/4 10/39/4 
f 24/43/5 29/44/5 20/45/5 
f 20/45/5 22/46/5 24/43/5 
f 29/44/5 27/47/5 17/48/5 
f 17/48/5 20/45/5 29/44/5 
f 27/47/5 13/49/5 18/50/5 
f 18/50/5 17/48/5 27/47/5 
f 13/51/6 3/52/6 15/53/6 
f 15/53/6 18/54/6 13/51/6 
# 46 faces

