# 3ds Max Wavefront OBJ Exporter v0.97b - (c)2007 guruware
# File Created: 19.11.2017 14:50:41

mtllib bigBrickWallWithDoorway.mtl

#
# object brick_wall_x1_port_long
#

v  -2075.0681 201.0000 22.0000
v  -2075.0681 0.0000 22.0000
v  -1737.6542 0.0000 22.0000
v  -1737.6542 201.0000 22.0000
v  -1737.6542 500.0000 22.0000
v  -2075.0681 500.0000 22.0000
v  -2537.6543 0.0000 22.0000
v  -2205.4548 0.0000 22.0000
v  -2205.4548 201.0000 22.0000
v  -2537.6543 201.0000 22.0000
v  -2537.6543 500.0000 22.0000
v  -2205.4548 500.0000 22.0000
v  -2075.0681 0.0000 -45.0000
v  -2205.4548 0.0000 -45.0000
v  -2075.0681 201.0000 -45.0000
v  -2205.4548 201.0000 -45.0000
# 16 vertices

vn 0.0000 -0.0000 1.0000
vn -0.0000 -0.0000 1.0000
vn 0.0000 1.0000 0.0000
vn -1.0000 -0.0000 -0.0000
vn 0.0000 -1.0000 -0.0000
vn 1.0000 -0.0000 -0.0000
# 6 vertex normals

vt 0.8365 0.3020 0.9530
vt 0.8365 -0.7030 0.9530
vt 2.5235 -0.7030 0.9530
vt 2.5235 0.3020 0.9530
vt 2.5235 1.7970 -0.0470
vt 0.8365 1.7970 -0.0470
vt -1.4765 -0.7030 0.9530
vt 0.1845 -0.7030 0.9530
vt 0.1845 0.3020 0.9530
vt -1.4765 0.3020 0.9530
vt -1.4765 1.7970 -0.0470
vt 0.1845 1.7970 -0.0470
vt 0.3220 0.0000 0.5000
vt 1.6259 0.0000 0.5000
vt 1.6259 0.6700 0.5000
vt 0.3220 0.6700 0.5000
vt 1.1800 0.9800 0.4938
vt 1.1800 -0.0250 0.4938
vt 0.8450 -0.0250 0.4938
vt 0.8450 0.9800 0.4938
vt 0.1821 0.3000 0.5000
vt 0.8340 0.3000 0.5000
vt 0.8340 0.6350 0.5000
vt 0.1821 0.6350 0.5000
vt 1.1850 -0.0250 0.5030
vt 1.1850 0.9800 0.5030
vt 0.8500 0.9800 0.5030
vt 0.8500 -0.0250 0.5030
# 28 texture coords

g brick_wall_x1_port_long
usemtl wallOldBrick
f 1/1/1 2/2/1 3/3/2 
f 1/1/1 3/3/2 4/4/2 
f 1/1/1 4/4/2 5/5/1 
f 1/1/1 5/5/1 6/6/1 
f 7/7/1 8/8/1 9/9/2 
f 10/10/1 7/7/1 9/9/2 
f 11/11/2 10/10/1 9/9/2 
f 12/12/2 11/11/2 9/9/2 
f 6/6/1 12/12/2 9/9/2 
f 1/1/1 6/6/1 9/9/2 
usemtl FloarTile
f 8/13/3 2/14/3 13/15/3 
f 13/15/3 14/16/3 8/13/3 
usemtl wallOldBrick
f 2/17/4 1/18/4 15/19/4 
f 15/19/4 13/20/4 2/17/4 
f 1/21/5 9/22/5 16/23/5 
f 16/23/5 15/24/5 1/21/5 
f 9/25/6 8/26/6 14/27/6 
f 14/27/6 16/28/6 9/25/6 
# 18 faces

