# 3ds Max Wavefront OBJ Exporter v0.97b - (c)2007 guruware
# File Created: 19.11.2017 15:38:23

mtllib bigDoorway.mtl

#
# object big_doorway
#

v  2107.0723 -0.1986 -7.6040
v  2110.5979 -0.1986 7.8440
v  2110.5979 210.2698 7.8440
v  2108.4001 210.2698 -1.6667
v  2108.4001 254.7814 -1.6667
v  2107.0723 254.7814 -7.6040
v  2120.2822 210.2698 19.2102
v  2120.2822 -0.1986 19.2102
v  2133.5977 210.2698 23.3960
v  2133.5977 -0.1986 23.3960
v  2147.0117 210.2698 19.1354
v  2147.0117 -0.1986 19.1354
v  2156.6006 210.2698 -0.1889
v  2156.6006 -0.1986 -0.1889
v  2147.0127 210.2698 -34.3425
v  2156.6018 210.2698 -14.8762
v  2156.6018 -0.1986 -14.8762
v  2147.0127 -0.1986 -34.3425
v  2133.5977 210.2698 -38.6040
v  2133.5977 -0.1986 -38.6040
v  2120.2822 210.2698 -34.4183
v  2120.2822 -0.1986 -34.4183
v  2110.5979 210.2698 -23.0521
v  2110.5979 -0.1986 -23.0521
v  2108.4001 254.7814 -13.5413
v  2108.4001 210.2698 -13.5413
v  2428.1699 210.2698 -23.0521
v  2431.6956 210.2698 -7.6040
v  2431.6956 -0.1986 -7.6040
v  2428.1699 -0.1986 -23.0521
v  2428.1697 210.2698 7.8440
v  2428.1697 -0.1986 7.8440
v  2418.4854 210.2698 -34.4182
v  2418.4854 -0.1986 -34.4182
v  2418.4854 210.2698 19.2102
v  2418.4854 -0.1986 19.2102
v  2405.1702 210.2698 23.3960
v  2405.1702 -0.1986 23.3960
v  2391.7561 210.2698 19.1354
v  2391.7561 -0.1986 19.1354
v  2382.1670 210.2698 -0.1889
v  2382.1670 -0.1986 -0.1889
v  2382.1665 210.2698 -14.9582
v  2391.7556 210.2698 -34.3431
v  2391.7556 -0.1986 -34.3431
v  2382.1665 -0.1986 -14.9582
v  2405.1702 210.2698 -38.6040
v  2405.1702 -0.1986 -38.6040
v  2111.4919 210.2698 7.3960
v  2111.4919 -0.1986 7.3960
v  2108.0723 -0.1986 -7.6040
v  2108.0723 254.7814 -7.6040
v  2109.3750 254.7814 -1.8890
v  2109.3750 210.2698 -1.8890
v  2120.8350 210.2698 18.3767
v  2120.8350 -0.1986 18.3767
v  2133.5977 210.2698 22.3960
v  2133.5977 -0.1986 22.3960
v  2146.3604 210.2698 18.3767
v  2146.3604 -0.1986 18.3767
v  2155.7031 210.2698 -0.6301
v  2155.7031 -0.1986 -0.6301
v  2155.7031 -0.1986 -14.4376
v  2155.7031 210.2698 -14.4376
v  2146.3604 210.2698 -33.5848
v  2146.3604 -0.1986 -33.5848
v  2133.5977 210.2698 -37.6040
v  2133.5977 -0.1986 -37.6040
v  2120.8350 210.2698 -33.5848
v  2120.8350 -0.1986 -33.5848
v  2111.4919 210.2698 -22.6040
v  2111.4919 -0.1986 -22.6040
v  2109.3750 210.2698 -13.3191
v  2109.3750 254.7814 -13.3191
v  2430.6956 -0.1986 -7.6040
v  2430.6956 210.2698 -7.6040
v  2427.2759 210.2698 -22.6040
v  2427.2759 -0.1986 -22.6040
v  2427.2759 -0.1986 7.3960
v  2427.2759 210.2698 7.3960
v  2417.9329 210.2698 -33.5848
v  2417.9329 -0.1986 -33.5848
v  2417.9329 -0.1986 18.3768
v  2417.9329 210.2698 18.3768
v  2405.1702 -0.1986 22.3960
v  2405.1702 210.2698 22.3960
v  2392.4075 -0.1986 18.3767
v  2392.4075 210.2698 18.3767
v  2383.0645 -0.1986 -0.6301
v  2383.0645 210.2698 -0.6301
v  2392.4075 -0.1986 -33.5848
v  2392.4075 210.2698 -33.5848
v  2383.0645 210.2698 -14.5182
v  2383.0645 -0.1986 -14.5182
v  2405.1702 -0.1986 -37.6040
v  2405.1702 210.2698 -37.6040
v  2392.4075 210.4690 -33.5848
v  2383.0645 210.4690 -14.5182
v  2379.6448 210.4690 -7.6040
v  2405.1702 210.4690 22.3960
v  2431.3750 210.4690 24.4108
v  2330.6536 210.4690 24.4108
v  2210.0967 210.4690 24.4108
v  2109.3750 210.4690 24.4108
v  2392.4075 210.4690 18.3767
v  2109.3750 210.4690 -1.8890
v  2111.4919 210.4690 7.3960
v  2120.8350 210.4690 18.3767
v  2133.5977 210.4690 22.3960
v  2383.0645 210.4690 -0.6301
v  2159.1230 210.4690 -7.6040
v  2155.7031 210.4690 -14.4376
v  2146.3604 210.4690 -33.5848
v  2111.4919 210.4690 -22.6040
v  2109.3750 210.4690 -13.3191
v  2109.3750 210.4690 -38.5644
v  2120.8350 210.4690 -33.5848
v  2133.5977 210.4690 -37.6040
v  2431.3750 210.4690 -38.5644
v  2417.9329 210.4690 18.3768
v  2427.2759 210.4690 7.3960
v  2430.6956 210.4690 -7.6040
v  2427.2759 210.4690 -22.6040
v  2417.9329 210.4690 -33.5848
v  2405.1702 210.4690 -37.6040
v  2155.7031 210.4690 -0.6301
v  2146.3604 210.4690 18.3767
v  2109.3750 254.9806 -1.8890
v  2109.3750 280.3271 24.4108
v  2109.3750 280.3271 -38.5644
v  2109.3750 254.9806 -13.3191
v  2431.3750 280.3271 -38.5644
v  2431.3750 280.3271 24.4108
v  2210.0967 280.3271 24.4108
v  2330.6536 280.3271 24.4108
v  2108.0723 254.9806 -7.6040
v  2133.5977 0.0006 -37.6040
v  2146.3604 0.0006 -33.5848
v  2155.7031 0.0006 -14.4376
v  2159.1230 0.0006 -7.6040
v  2155.7031 0.0006 -0.6301
v  2146.3604 0.0006 18.3767
v  2133.5977 0.0006 22.3960
v  2120.8350 0.0006 18.3767
v  2111.4919 0.0006 7.3960
v  2108.0723 0.0006 -7.6040
v  2111.4919 0.0006 -22.6040
v  2120.8350 0.0006 -33.5848
v  2405.1702 0.0006 -37.6040
v  2417.9329 0.0006 -33.5848
v  2427.2759 0.0006 -22.6040
v  2430.6956 0.0006 -7.6040
v  2427.2759 0.0006 7.3960
v  2417.9329 0.0006 18.3768
v  2405.1702 0.0006 22.3960
v  2392.4075 0.0006 18.3767
v  2383.0645 0.0006 -0.6301
v  2379.6448 0.0006 -7.6040
v  2383.0645 0.0006 -14.5182
v  2392.4075 0.0006 -33.5848
# 160 vertices

vn -1.0000 -0.0000 -0.0000
vn -0.8938 0.0000 0.4485
vn -0.8932 -0.0001 0.4496
vn -0.9754 -0.0001 0.2206
vn -0.9759 -0.0000 0.2183
vn -0.5521 0.0000 0.8338
vn 0.0015 0.0000 1.0000
vn 0.6510 0.0000 0.7591
vn 0.8958 0.0000 0.4445
vn 0.6521 0.0000 -0.7581
vn 0.8971 0.0000 -0.4419
vn 0.0015 0.0000 -1.0000
vn -0.5521 0.0000 -0.8338
vn -0.8932 0.0000 -0.4497
vn -0.8938 -0.0000 -0.4485
vn -0.9759 0.0000 -0.2183
vn -0.9759 -0.0003 -0.2182
vn 0.8938 0.0000 -0.4485
vn 1.0000 0.0000 0.0000
vn 0.8938 0.0000 0.4485
vn 0.5521 0.0000 -0.8338
vn 0.5521 0.0000 0.8338
vn -0.0015 0.0000 1.0000
vn -0.6510 0.0000 0.7591
vn -0.8958 0.0000 0.4445
vn -0.8963 0.0000 -0.4434
vn -0.6514 0.0000 -0.7587
vn -0.0015 0.0000 -1.0000
vn 0.8940 -0.0000 -0.4480
vn 0.8940 0.0000 -0.4480
vn 1.0000 -0.0000 0.0000
vn 1.0000 -0.0000 -0.0000
vn 0.9750 0.0000 -0.2223
vn 0.9750 -0.0000 -0.2223
vn 0.5526 0.0000 -0.8335
vn 0.0000 0.0000 -1.0000
vn -0.6515 0.0000 -0.7587
vn -0.8974 0.0000 -0.4411
vn -0.8987 0.0000 0.4385
vn -0.6526 0.0000 0.7577
vn 0.0000 0.0000 1.0000
vn 0.5526 0.0000 0.8335
vn 0.8940 0.0000 0.4480
vn 0.8940 -0.0000 0.4480
vn 0.9750 -0.0000 0.2223
vn 0.9750 0.0000 0.2223
vn -1.0000 0.0000 -0.0000
vn -0.8940 0.0000 0.4480
vn -0.8940 0.0000 -0.4480
vn -0.5526 0.0000 0.8335
vn -0.5526 0.0000 -0.8335
vn 0.6515 0.0000 -0.7587
vn 0.8974 0.0000 -0.4411
vn 0.6519 0.0000 0.7583
vn 0.8980 0.0000 0.4400
vn 0.0000 -1.0000 -0.0000
vn 0.0000 1.0000 -0.0000
vn 0.2223 0.0000 0.9750
vn 0.0000 1.0000 0.0000
vn -0.0000 1.0000 0.0000
vn 0.4411 0.0000 -0.8974
vn -0.0000 1.0000 -0.0000
vn 0.4385 0.0000 0.8987
vn 0.2223 0.0000 -0.9750
vn -0.4411 0.0000 -0.8974
vn -0.4400 0.0000 0.8980
vn 0.0000 -1.0000 0.0000
vn 0.0001 -1.0000 0.0000
vn -0.0000 -1.0000 -0.0000
vn -0.0000 -1.0000 0.0000
vn 1.0000 0.0000 -0.0000
# 71 vertex normals

vt 0.2500 -0.7499 1.6510
vt 0.3501 -0.7499 1.7509
vt 0.3501 1.3135 1.7509
vt 0.2895 1.3135 1.6118
vt 0.2895 1.7499 1.6118
vt 0.2500 1.7499 1.6510
vt 0.4352 1.3135 1.9465
vt 0.4352 -0.7499 1.9465
vt 0.5090 1.3135 2.0700
vt 0.5090 -0.7499 2.0700
vt 0.5822 1.3135 2.0497
vt 0.5822 -0.7499 2.0497
vt 0.7037 1.3135 1.7233
vt 0.7037 -0.7499 1.7233
vt 0.9178 1.3135 2.0497
vt 0.7955 1.3135 1.7207
vt 0.7955 -0.7499 1.7207
vt 0.9178 -0.7499 2.0497
vt 0.9910 1.3135 2.0700
vt 0.9910 -0.7499 2.0700
vt 1.0648 1.3135 1.9465
vt 1.0648 -0.7499 1.9465
vt 0.1499 1.3135 1.7509
vt 0.0648 1.3135 1.9465
vt 0.0648 -0.7499 1.9465
vt 0.1499 -0.7499 1.7509
vt 0.2105 1.7499 1.6118
vt 0.2105 1.3135 1.6118
vt 0.8501 1.5317 1.7508
vt 0.7500 1.5317 1.6510
vt 0.7500 -0.5317 1.6510
vt 0.8501 -0.5317 1.7508
vt 0.6499 1.5317 1.7508
vt 0.6499 -0.5317 1.7508
vt 0.9352 1.5317 1.9465
vt 0.9352 -0.5317 1.9465
vt 0.5648 1.5317 1.9465
vt 0.5648 -0.5317 1.9465
vt 0.4910 1.5317 2.0700
vt 0.4910 -0.5317 2.0700
vt 0.4178 1.5317 2.0497
vt 0.4178 -0.5317 2.0497
vt 0.2963 1.5317 1.7234
vt 0.2963 -0.5317 1.7234
vt 0.2041 1.5317 1.7222
vt 0.0822 1.5317 2.0497
vt 0.0822 -0.5317 2.0497
vt 0.2041 -0.5317 1.7222
vt 0.0090 1.5317 2.0700
vt 0.0090 -0.5317 2.0700
vt 1.0090 1.5317 2.0700
vt 1.0090 -0.5317 2.0700
vt 0.3511 1.3135 1.6851
vt 0.3511 -0.7499 1.6851
vt 0.2500 -0.7499 1.5843
vt 0.2500 1.7499 1.5843
vt 0.2897 1.7499 1.5452
vt 0.2897 1.3135 1.5452
vt 0.4362 1.3135 1.8810
vt 0.4362 -0.7499 1.8810
vt 0.5093 1.3135 2.0034
vt 0.5093 -0.7499 2.0034
vt 0.5811 1.3135 1.9843
vt 0.5811 -0.7499 1.9843
vt 0.7048 1.3135 1.6576
vt 0.7048 -0.7499 1.6576
vt 0.7944 -0.7499 1.6550
vt 0.7944 1.3135 1.6550
vt 0.9189 1.3135 1.9843
vt 0.9189 -0.7499 1.9843
vt 0.9907 1.3135 2.0034
vt 0.9907 -0.7499 2.0034
vt -0.0093 -0.7499 2.0034
vt -0.0093 1.3135 2.0034
vt 0.0638 1.3135 1.8810
vt 0.0638 -0.7499 1.8810
vt 0.1489 1.3135 1.6851
vt 0.1489 -0.7499 1.6851
vt 0.2103 1.3135 1.5452
vt 0.2103 1.7499 1.5452
vt 0.7500 -0.5317 1.5843
vt 0.7500 1.5317 1.5843
vt 0.8511 1.5317 1.6851
vt 0.8511 -0.5317 1.6851
vt 0.6489 -0.5317 1.6851
vt 0.6489 1.5317 1.6851
vt 0.9362 1.5317 1.8809
vt 0.9362 -0.5317 1.8809
vt 0.5638 -0.5317 1.8809
vt 0.5638 1.5317 1.8809
vt 0.4907 -0.5317 2.0034
vt 0.4907 1.5317 2.0034
vt 0.4189 -0.5317 1.9843
vt 0.4189 1.5317 1.9843
vt 0.2952 -0.5317 1.6576
vt 0.2952 1.5317 1.6576
vt 0.0811 -0.5317 1.9843
vt 0.0811 1.5317 1.9843
vt 0.2051 1.5317 1.6565
vt 0.2051 -0.5317 1.6565
vt 0.0093 -0.5317 2.0034
vt 0.0093 1.5317 2.0034
vt -0.0638 -0.5317 1.8809
vt -0.0638 1.5317 1.8809
vt 0.2500 -1.5000 1.5843
vt 0.3511 -1.5000 1.6851
vt 0.3501 -1.5000 1.7509
vt 0.2500 -1.5000 1.6510
vt 0.3511 1.8017 1.6851
vt 0.2897 1.8017 1.5452
vt 0.2895 1.8017 1.6118
vt 0.3501 1.8017 1.7509
vt -0.5486 0.2702 0.4660
vt -0.5486 0.5622 0.4660
vt -0.5550 0.5622 0.4645
vt -0.5550 0.2702 0.4645
vt -0.5486 0.4660 0.5622
vt -0.5571 0.5035 0.5622
vt -0.5637 0.5035 0.5622
vt -0.5550 0.4645 0.5622
vt 0.4362 -1.5000 1.8810
vt 0.4352 -1.5000 1.9465
vt 0.4362 1.8017 1.8810
vt 0.4352 1.8017 1.9465
vt 0.5093 -1.5000 2.0034
vt 0.5090 -1.5000 2.0700
vt 0.5093 1.8017 2.0034
vt 0.5090 1.8017 2.0700
vt 0.5811 -1.5000 1.9843
vt 0.5822 -1.5000 2.0497
vt 0.5811 1.8017 1.9843
vt 0.5822 1.8017 2.0497
vt 0.7048 -1.5000 1.6576
vt 0.7037 -1.5000 1.7233
vt 0.7048 1.8017 1.6576
vt 0.7037 1.8017 1.7233
vt 0.7944 -1.5000 1.6550
vt 0.9189 -1.5000 1.9843
vt 0.9178 -1.5000 2.0497
vt 0.7955 -1.5000 1.7207
vt 0.9189 1.8017 1.9843
vt 0.7944 1.8017 1.6550
vt 0.7955 1.8017 1.7207
vt 0.9178 1.8017 2.0497
vt 0.9907 -1.5000 2.0034
vt 0.9910 -1.5000 2.0700
vt 0.9907 1.8017 2.0034
vt 0.9910 1.8017 2.0700
vt -0.0093 -1.5000 2.0034
vt 0.0638 -1.5000 1.8810
vt 0.0648 -1.5000 1.9465
vt -0.0090 -1.5000 2.0700
vt 1.0638 1.8017 1.8810
vt 1.0648 1.8017 1.9465
vt 0.1489 -1.5000 1.6851
vt 0.1499 -1.5000 1.7509
vt 0.1489 1.8017 1.6851
vt 0.0638 1.8017 1.8810
vt 0.0648 1.8017 1.9465
vt 0.1499 1.8017 1.7509
vt -0.5486 0.5409 0.5622
vt -0.5550 0.5424 0.5622
vt 1.5486 0.5622 0.5409
vt 1.5486 0.2702 0.5409
vt 1.5550 0.2702 0.5424
vt 1.5550 0.5622 0.5424
vt 0.2103 1.8017 1.5452
vt 0.2105 1.8017 1.6118
vt 0.7500 -1.5000 19.9239
vt 0.7581 -1.5000 19.7213
vt 0.7583 -1.5000 19.7823
vt 0.7500 -1.5000 19.9906
vt 0.7581 1.8017 19.7213
vt 0.7500 1.8017 19.9239
vt 0.7500 1.8017 19.9906
vt 0.7583 1.8017 19.7823
vt 0.7419 -1.5000 19.7213
vt 0.7417 -1.5000 19.7823
vt 0.7419 1.8017 19.7213
vt 0.7417 1.8017 19.7823
vt 0.7644 -1.5000 19.1515
vt 0.7648 -1.5000 19.1933
vt 0.7644 1.8017 19.1515
vt 0.7648 1.8017 19.1933
vt 0.7356 -1.5000 19.1515
vt 0.7352 -1.5000 19.1933
vt 0.7356 1.8017 19.1515
vt 0.7352 1.8017 19.1933
vt 0.7326 -1.5000 18.3316
vt 0.7320 -1.5000 18.3390
vt 0.7326 1.8017 18.3316
vt 0.7320 1.8017 18.3390
vt 0.7342 -1.5000 17.4575
vt 0.7337 -1.5000 17.4194
vt 0.7342 1.8017 17.4575
vt 0.7337 1.8017 17.4194
vt 0.7456 -1.5000 16.7550
vt 0.7453 -1.5000 16.6960
vt 0.7456 1.8017 16.7550
vt 0.7453 1.8017 16.6960
vt 0.7658 -1.5000 17.4575
vt 0.7544 -1.5000 16.7548
vt 0.7547 -1.5000 16.6958
vt 0.7663 -1.5000 17.4193
vt 0.7544 1.8017 16.7548
vt 0.7658 1.8017 17.4575
vt 0.7663 1.8017 17.4193
vt 0.7547 1.8017 16.6958
vt 0.7674 -1.5000 18.3316
vt 0.7680 -1.5000 18.3390
vt 0.7674 1.8017 18.3316
vt 0.7680 1.8017 18.3390
vt -0.3081 0.6739 0.2715
vt -0.2468 0.5488 0.2715
vt -0.2243 0.5035 0.2715
vt -0.3918 0.3067 0.2715
vt -0.5637 0.2934 0.2715
vt 0.0970 0.2934 0.2715
vt 0.8879 0.2934 0.2715
vt 1.5486 0.2934 0.2715
vt -0.3081 0.3330 0.2715
vt 1.5486 0.4660 0.2715
vt 1.5347 0.4051 0.2715
vt 1.4734 0.3330 0.2715
vt 1.3897 0.3067 0.2715
vt -0.2468 0.4577 0.2715
vt 1.2222 0.5035 0.2715
vt 1.2447 0.5483 0.2715
vt 1.3060 0.6739 0.2715
vt 1.5347 0.6019 0.2715
vt 1.5486 0.5409 0.2715
vt 1.5486 0.7066 0.2715
vt 1.4734 0.6739 0.2715
vt 1.3897 0.7003 0.2715
vt -0.5637 0.7066 0.2715
vt -0.4755 0.3330 0.2715
vt -0.5368 0.4051 0.2715
vt -0.5592 0.5035 0.2715
vt -0.5368 0.6019 0.2715
vt -0.4755 0.6739 0.2715
vt -0.3918 0.7003 0.2715
vt 1.2447 0.4577 0.2715
vt 1.3060 0.3330 0.2715
vt 0.5340 0.5635 -0.5486
vt 0.5340 0.2715 -0.5486
vt 0.7066 0.2715 -0.5486
vt 0.7066 0.7298 -0.5486
vt 0.2934 0.7298 -0.5486
vt 0.2934 0.2715 -0.5486
vt 0.4591 0.2715 -0.5486
vt 0.4591 0.5635 -0.5486
vt -0.5637 0.7298 0.7066
vt -0.5637 0.2715 0.7066
vt 1.5486 0.2715 0.7066
vt 1.5486 0.7298 0.7066
vt 0.2934 0.7298 1.5637
vt 0.2934 0.2715 1.5637
vt 0.7066 0.2715 1.5637
vt 0.7066 0.7298 1.5637
vt 1.5637 0.2934 0.7298
vt 1.5637 0.7066 0.7298
vt -0.5486 0.7066 0.7298
vt -0.5486 0.2934 0.7298
vt 0.1121 0.2934 0.7298
vt 0.9030 0.2934 0.7298
vt -0.5486 0.5409 0.5635
vt -0.5571 0.5035 0.5635
vt -0.5486 0.4660 0.5635
vt -0.0093 -1.4969 2.0034
vt 0.9189 -1.4969 1.9843
vt 0.7944 -1.4969 1.6550
vt 0.7500 -1.4969 1.8191
vt 0.7048 -1.4969 1.6576
vt 0.5811 -1.4969 1.9843
vt 0.5093 -1.4969 2.0034
vt 0.4362 -1.4969 1.8810
vt 0.3511 -1.4969 1.6851
vt 0.2500 -1.4969 1.5843
vt 0.1489 -1.4969 1.6851
vt 0.0638 -1.4969 1.8810
vt 0.7674 -1.4969 18.3316
vt 0.7644 -1.4969 19.1515
vt 0.7581 -1.4969 19.7213
vt 0.7500 -1.4969 19.9239
vt 0.7419 -1.4969 19.7213
vt 0.7356 -1.4969 19.1515
vt 0.7326 -1.4969 18.3316
vt 0.7342 -1.4969 17.4575
vt 0.7456 -1.4969 16.7550
vt 0.7500 -1.4969 16.5205
vt 0.7544 -1.4969 16.7548
vt 0.7658 -1.4969 17.4575
vt 0.1121 0.7298 0.2934
vt -0.5486 0.7298 0.2934
vt -0.5486 0.2715 0.2934
vt 0.9030 0.7298 0.2934
vt 1.5637 0.7298 0.2934
vt 0.1121 0.2715 0.2934
vt 0.9030 0.2715 0.2934
vt 1.5637 0.2715 0.2934
# 300 texture coords

g big_doorway
usemtl doorway_column_brick
f 1/1/1 2/2/2 3/3/3 
f 1/1/1 3/3/3 4/4/4 
f 1/1/1 4/4/4 5/5/5 
f 1/1/1 5/5/5 6/6/1 
f 7/7/6 3/3/3 2/2/2 
f 2/2/2 8/8/6 7/7/6 
f 9/9/7 7/7/6 8/8/6 
f 8/8/6 10/10/7 9/9/7 
f 11/11/8 9/9/7 10/10/7 
f 10/10/7 12/12/8 11/11/8 
f 13/13/9 11/11/8 12/12/8 
f 12/12/8 14/14/9 13/13/9 
f 15/15/10 16/16/11 17/17/11 
f 17/17/11 18/18/10 15/15/10 
f 19/19/12 15/15/10 18/18/10 
f 18/18/10 20/20/12 19/19/12 
f 21/21/13 19/19/12 20/20/12 
f 20/20/12 22/22/13 21/21/13 
f 23/23/14 21/24/13 22/25/13 
f 22/25/13 24/26/15 23/23/14 
f 6/6/1 25/27/16 26/28/17 
f 26/28/17 23/23/14 24/26/15 
f 6/6/1 26/28/17 24/26/15 
f 6/6/1 24/26/15 1/1/1 
f 27/29/18 28/30/19 29/31/19 
f 29/31/19 30/32/18 27/29/18 
f 28/30/19 31/33/20 32/34/20 
f 32/34/20 29/31/19 28/30/19 
f 33/35/21 27/29/18 30/32/18 
f 30/32/18 34/36/21 33/35/21 
f 31/33/20 35/37/22 36/38/22 
f 36/38/22 32/34/20 31/33/20 
f 35/37/22 37/39/23 38/40/23 
f 38/40/23 36/38/22 35/37/22 
f 37/39/23 39/41/24 40/42/24 
f 40/42/24 38/40/23 37/39/23 
f 39/41/24 41/43/25 42/44/25 
f 42/44/25 40/42/24 39/41/24 
f 43/45/26 44/46/27 45/47/27 
f 45/47/27 46/48/26 43/45/26 
f 44/46/27 47/49/28 48/50/28 
f 48/50/28 45/47/27 44/46/27 
f 47/51/28 33/35/21 34/36/21 
f 34/36/21 48/52/28 47/51/28 
f 49/53/29 50/54/30 51/55/31 
f 51/55/31 52/56/32 53/57/33 
f 51/55/31 53/57/33 54/58/34 
f 49/53/29 51/55/31 54/58/34 
f 50/54/30 49/53/29 55/59/35 
f 55/59/35 56/60/35 50/54/30 
f 56/60/35 55/59/35 57/61/36 
f 57/61/36 58/62/36 56/60/35 
f 58/62/36 57/61/36 59/63/37 
f 59/63/37 60/64/37 58/62/36 
f 60/64/37 59/63/37 61/65/38 
f 61/65/38 62/66/38 60/64/37 
f 63/67/39 64/68/39 65/69/40 
f 65/69/40 66/70/40 63/67/39 
f 66/70/40 65/69/40 67/71/41 
f 67/71/41 68/72/41 66/70/40 
f 68/73/41 67/74/41 69/75/42 
f 69/75/42 70/76/42 68/73/41 
f 70/76/42 69/75/42 71/77/43 
f 71/77/43 72/78/44 70/76/42 
f 73/79/45 74/80/46 52/56/32 
f 52/56/32 51/55/31 72/78/44 
f 73/79/45 52/56/32 72/78/44 
f 73/79/45 72/78/44 71/77/43 
f 75/81/47 76/82/47 77/83/48 
f 77/83/48 78/84/48 75/81/47 
f 79/85/49 80/86/49 76/82/47 
f 76/82/47 75/81/47 79/85/49 
f 78/84/48 77/83/48 81/87/50 
f 81/87/50 82/88/50 78/84/48 
f 83/89/51 84/90/51 80/86/49 
f 80/86/49 79/85/49 83/89/51 
f 85/91/36 86/92/36 84/90/51 
f 84/90/51 83/89/51 85/91/36 
f 87/93/52 88/94/52 86/92/36 
f 86/92/36 85/91/36 87/93/52 
f 89/95/53 90/96/53 88/94/52 
f 88/94/52 87/93/52 89/95/53 
f 91/97/54 92/98/54 93/99/55 
f 93/99/55 94/100/55 91/97/54 
f 95/101/41 96/102/41 92/98/54 
f 92/98/54 91/97/54 95/101/41 
f 82/103/50 81/104/50 96/102/41 
f 96/102/41 95/101/41 82/103/50 
f 51/105/56 50/106/56 2/107/56 
f 2/107/56 1/108/56 51/105/56 
f 49/109/57 54/110/57 4/111/57 
f 4/111/57 3/112/57 49/109/57 
f 54/113/58 53/114/58 5/115/58 
f 5/115/58 4/116/58 54/113/58 
f 53/117/57 52/118/57 6/119/57 
f 6/119/57 5/120/57 53/117/57 
f 50/106/56 56/121/56 8/122/56 
f 8/122/56 2/107/56 50/106/56 
f 55/123/59 49/109/57 3/112/57 
f 3/112/57 7/124/59 55/123/59 
f 56/121/56 58/125/56 10/126/56 
f 10/126/56 8/122/56 56/121/56 
f 57/127/57 55/123/59 7/124/59 
f 7/124/59 9/128/57 57/127/57 
f 58/125/56 60/129/56 12/130/56 
f 12/130/56 10/126/56 58/125/56 
f 59/131/60 57/127/57 9/128/57 
f 9/128/57 11/132/60 59/131/60 
f 60/129/56 62/133/56 14/134/56 
f 14/134/56 12/130/56 60/129/56 
f 62/66/61 61/65/61 13/13/61 
f 13/13/61 14/14/61 62/66/61 
f 61/135/60 59/131/60 11/132/60 
f 11/132/60 13/136/60 61/135/60 
f 63/137/56 66/138/56 18/139/56 
f 18/139/56 17/140/56 63/137/56 
f 65/141/62 64/142/62 16/143/62 
f 16/143/62 15/144/62 65/141/62 
f 64/68/63 63/67/63 17/17/63 
f 17/17/63 16/16/63 64/68/63 
f 66/138/56 68/145/56 20/146/56 
f 20/146/56 18/139/56 66/138/56 
f 67/147/57 65/141/62 15/144/62 
f 15/144/62 19/148/57 67/147/57 
f 68/149/56 70/150/56 22/151/56 
f 22/151/56 20/152/56 68/149/56 
f 69/153/57 67/147/57 19/148/57 
f 19/148/57 21/154/57 69/153/57 
f 70/150/56 72/155/56 24/156/56 
f 24/156/56 22/151/56 70/150/56 
f 71/157/57 69/158/57 21/159/57 
f 21/159/57 23/160/59 71/157/57 
f 72/155/56 51/105/56 1/108/56 
f 1/108/56 24/156/56 72/155/56 
f 52/118/57 74/161/57 25/162/57 
f 25/162/57 6/119/57 52/118/57 
f 74/163/64 73/164/64 26/165/64 
f 26/165/64 25/166/64 74/163/64 
f 73/167/59 71/157/57 23/160/59 
f 23/160/59 26/168/59 73/167/59 
f 75/169/56 78/170/56 30/171/56 
f 30/171/56 29/172/56 75/169/56 
f 77/173/57 76/174/57 28/175/57 
f 28/175/57 27/176/57 77/173/57 
f 79/177/56 75/169/56 29/172/56 
f 29/172/56 32/178/56 79/177/56 
f 76/174/57 80/179/57 31/180/57 
f 31/180/57 28/175/57 76/174/57 
f 78/170/56 82/181/56 34/182/56 
f 34/182/56 30/171/56 78/170/56 
f 81/183/57 77/173/57 27/176/57 
f 27/176/57 33/184/57 81/183/57 
f 83/185/56 79/177/56 32/178/56 
f 32/178/56 36/186/56 83/185/56 
f 80/179/57 84/187/57 35/188/57 
f 35/188/57 31/180/57 80/179/57 
f 85/189/56 83/185/56 36/186/56 
f 36/186/56 38/190/56 85/189/56 
f 84/187/57 86/191/57 37/192/57 
f 37/192/57 35/188/57 84/187/57 
f 87/193/56 85/189/56 38/190/56 
f 38/190/56 40/194/56 87/193/56 
f 86/191/57 88/195/59 39/196/59 
f 39/196/59 37/192/57 86/191/57 
f 89/197/56 87/193/56 40/194/56 
f 40/194/56 42/198/56 89/197/56 
f 88/195/59 90/199/59 41/200/59 
f 41/200/59 39/196/59 88/195/59 
f 90/96/65 89/95/65 42/44/65 
f 42/44/65 41/43/65 90/96/65 
f 91/201/56 94/202/56 46/203/56 
f 46/203/56 45/204/56 91/201/56 
f 94/100/66 93/99/66 43/45/66 
f 43/45/66 46/48/66 94/100/66 
f 93/205/57 92/206/57 44/207/57 
f 44/207/57 43/208/57 93/205/57 
f 95/209/56 91/201/56 45/204/56 
f 45/204/56 48/210/56 95/209/56 
f 92/206/57 96/211/57 47/212/57 
f 47/212/57 44/207/57 92/206/57 
f 82/181/56 95/209/56 48/210/56 
f 48/210/56 34/182/56 82/181/56 
f 96/211/57 81/183/57 33/184/57 
f 33/184/57 47/212/57 96/211/57 
usemtl big_doorway_upper_balka
f 97/213/67 98/214/68 99/215/67 
f 100/216/56 101/217/56 102/218/56 
f 100/216/56 102/218/56 103/219/56 
f 100/216/56 103/219/56 104/220/56 
f 105/221/69 100/216/56 104/220/56 
f 104/220/56 106/222/56 107/223/56 
f 104/220/56 107/223/56 108/224/56 
f 104/220/56 108/224/56 109/225/56 
f 105/221/69 104/220/56 109/225/56 
f 110/226/67 105/221/69 109/225/56 
f 99/215/67 110/226/67 109/225/56 
f 97/213/67 99/215/67 109/225/56 
f 111/227/70 112/228/70 113/229/70 
f 114/230/56 115/231/56 116/232/56 
f 117/233/56 114/230/56 116/232/56 
f 118/234/56 117/233/56 116/232/56 
f 118/234/56 116/232/56 119/235/56 
f 113/229/70 118/234/56 119/235/56 
f 101/217/56 100/216/56 120/236/56 
f 101/217/56 120/236/56 121/237/56 
f 101/217/56 121/237/56 122/238/56 
f 119/235/56 101/217/56 122/238/56 
f 119/235/56 122/238/56 123/239/56 
f 119/235/56 123/239/56 124/240/56 
f 119/235/56 124/240/56 125/241/70 
f 113/229/70 119/235/56 125/241/70 
f 111/227/70 113/229/70 125/241/70 
f 126/242/70 111/227/70 125/241/70 
f 127/243/69 126/242/70 125/241/70 
f 109/225/56 127/243/69 125/241/70 
f 97/213/67 109/225/56 125/241/70 
f 128/244/47 106/245/47 104/246/47 
f 128/244/47 104/246/47 129/247/47 
f 130/248/47 116/249/47 115/250/47 
f 130/248/47 115/250/47 131/251/47 
f 129/247/47 130/248/47 131/251/47 
f 128/244/47 129/247/47 131/251/47 
f 132/252/36 119/253/36 116/254/36 
f 116/254/36 130/255/36 132/252/36 
f 133/256/71 101/257/71 119/258/71 
f 119/258/71 132/259/71 133/256/71 
f 133/260/57 132/261/57 130/262/57 
f 130/262/57 129/263/57 134/264/57 
f 130/262/57 134/264/57 135/265/57 
f 133/260/57 130/262/57 135/265/57 
usemtl doorway_column_brick
f 131/266/57 136/267/57 128/268/57 
f 137/269/56 138/270/56 139/271/56 
f 139/271/56 140/272/56 141/273/56 
f 141/273/56 142/274/56 143/275/56 
f 139/271/56 141/273/56 143/275/56 
f 143/275/56 144/276/56 145/277/56 
f 145/277/56 146/278/56 147/279/56 
f 143/275/56 145/277/56 147/279/56 
f 139/271/56 143/275/56 147/279/56 
f 137/269/56 139/271/56 147/279/56 
f 137/269/56 147/279/56 148/280/56 
f 149/281/56 150/282/56 151/283/56 
f 151/283/56 152/284/56 153/285/56 
f 153/285/56 154/286/56 155/287/56 
f 151/283/56 153/285/56 155/287/56 
f 155/287/56 156/288/56 157/289/56 
f 157/289/56 158/290/56 159/291/56 
f 155/287/56 157/289/56 159/291/56 
f 151/283/56 155/287/56 159/291/56 
f 149/281/56 151/283/56 159/291/56 
f 149/281/56 159/291/56 160/292/56 
usemtl big_doorway_upper_balka
f 134/293/41 129/294/41 104/295/41 
f 135/296/41 134/293/41 104/295/41 
f 133/297/41 135/296/41 104/295/41 
f 133/297/41 104/295/41 103/298/41 
f 133/297/41 103/298/41 102/299/41 
f 101/300/41 133/297/41 102/299/41 
# 256 faces

