# 3ds Max Wavefront OBJ Exporter v0.97b - (c)2007 guruware
# File Created: 19.11.2017 15:20:03

mtllib brickCeilx4.mtl

#
# object brick_ceil_x4
#

v  1050.0000 300.0000 50.0000
v  1450.0000 300.0000 50.0000
v  1450.0000 300.0000 450.0000
v  1050.0000 300.0000 450.0000
# 4 vertices

vn 0.0000 -1.0000 -0.0000
# 1 vertex normals

vt 1.7500 0.8000 0.5000
vt 3.7500 0.8000 0.5000
vt 3.7500 -1.2000 0.5001
vt 1.7500 -1.2000 0.5001
# 4 texture coords

g brick_ceil_x4
usemtl wallOldBrick
f 1/1/1 2/2/1 3/3/1 
f 3/3/1 4/4/1 1/1/1 
# 2 faces

