# 3ds Max Wavefront OBJ Exporter v0.97b - (c)2007 guruware
# File Created: 26.02.2018 21:21:27

mtllib brickWallx1SF1.mtl

#
# object brick_wall_x1_SF1
#

v  281.8103 0.0000 10.0000
v  481.8103 0.0000 10.0000
v  481.8103 300.0000 10.0000
v  281.8103 300.0000 10.0000
v  281.8103 300.0000 0.0000
v  281.8103 0.0000 -0.0000
v  481.8103 0.0000 -0.0000
v  481.8103 300.0000 0.0000
# 8 vertices

vn 0.0000 -0.0000 1.0000
vn -1.0000 0.0000 -0.0000
vn 0.0000 -1.0000 -0.0000
vn 1.0000 0.0000 -0.0000
vn 0.0000 1.0000 0.0000
vn 0.0000 0.0000 -1.0000
# 6 vertex normals

vt 0.0219 0.9782 0.5000
vt 1.0219 0.9782 0.5000
vt 1.0219 -0.5218 0.5000
vt 0.0219 -0.5218 0.5000
# 4 texture coords

g brick_wall_x1_SF1
usemtl wallOldBrick
f 1/1/1 2/2/1 3/3/1 
f 3/3/1 4/4/1 1/1/1 
f 5/4/2 6/1/2 1/1/2 
f 1/1/2 4/4/2 5/4/2 
f 6/1/3 7/2/3 2/2/3 
f 2/2/3 1/1/3 6/1/3 
f 7/2/4 8/3/4 3/3/4 
f 3/3/4 2/2/4 7/2/4 
f 8/3/5 5/4/5 4/4/5 
f 4/4/5 3/3/5 8/3/5 
f 8/3/6 7/2/6 6/1/6 
f 6/1/6 5/4/6 8/3/6 
# 12 faces

