# 3ds Max Wavefront OBJ Exporter v0.97b - (c)2007 guruware
# File Created: 19.11.2017 15:31:26

mtllib brickWallPortx1.mtl

#
# object brick_wall_x1_port
#

v  162.5856 201.0000 29.3874
v  162.5856 0.0000 29.3874
v  200.0000 0.0000 29.3874
v  200.0000 201.0000 29.3874
v  200.0000 300.0000 29.3875
v  162.5856 300.0000 29.3875
v  0.0000 0.0000 29.3874
v  32.1989 0.0000 29.3874
v  32.1989 201.0000 29.3874
v  0.0000 201.0000 29.3874
v  0.0000 300.0000 29.3875
v  32.1989 300.0000 29.3875
v  162.5856 0.0000 -37.6126
v  32.1989 0.0000 -37.6126
v  162.5856 201.0000 -37.6126
v  32.1989 201.0000 -37.6126
# 16 vertices

vn 0.0000 -0.0000 1.0000
vn 0.0000 1.0000 0.0000
vn -1.0000 -0.0000 -0.0000
vn 0.0000 -1.0000 -0.0000
vn 1.0000 -0.0000 -0.0000
# 5 vertex normals

vt 0.8348 -0.0268 0.5000
vt 0.8348 0.9782 0.5000
vt 1.0219 0.9782 0.5000
vt 1.0219 -0.0268 0.5000
vt 1.0219 -0.5218 0.5000
vt 0.8348 -0.5218 0.5000
vt 0.0219 0.9782 0.5000
vt 0.1829 0.9782 0.5000
vt 0.1829 -0.0268 0.5000
vt 0.0219 -0.0268 0.5000
vt 0.0219 -0.5218 0.5000
vt 0.1829 -0.5218 0.5000
vt 0.3220 0.0000 0.5000
vt 1.6259 0.0000 0.5000
vt 1.6259 0.6700 0.5000
vt 0.3220 0.6700 0.5000
vt 1.1800 0.9800 0.4938
vt 1.1800 -0.0250 0.4938
vt 0.8450 -0.0250 0.4938
vt 0.8450 0.9800 0.4938
vt 0.1821 0.3000 0.5000
vt 0.8340 0.3000 0.5000
vt 0.8340 0.6350 0.5000
vt 0.1821 0.6350 0.5000
vt 1.1850 -0.0250 0.5030
vt 1.1850 0.9800 0.5030
vt 0.8500 0.9800 0.5030
vt 0.8500 -0.0250 0.5030
# 28 texture coords

g brick_wall_x1_port
usemtl wallOldBrick
f 1/1/1 2/2/1 3/3/1 
f 1/1/1 3/3/1 4/4/1 
f 1/1/1 4/4/1 5/5/1 
f 1/1/1 5/5/1 6/6/1 
f 7/7/1 8/8/1 9/9/1 
f 10/10/1 7/7/1 9/9/1 
f 11/11/1 10/10/1 9/9/1 
f 12/12/1 11/11/1 9/9/1 
f 6/6/1 12/12/1 9/9/1 
f 1/1/1 6/6/1 9/9/1 
usemtl FloarTile
f 8/13/2 2/14/2 13/15/2 
f 13/15/2 14/16/2 8/13/2 
usemtl wallOldBrick
f 2/17/3 1/18/3 15/19/3 
f 15/19/3 13/20/3 2/17/3 
f 1/21/4 9/22/4 16/23/4 
f 16/23/4 15/24/4 1/21/4 
f 9/25/5 8/26/5 14/27/5 
f 14/27/5 16/28/5 9/25/5 
# 18 faces

