# 3ds Max Wavefront OBJ Exporter v0.97b - (c)2007 guruware
# File Created: 19.11.2017 15:19:20

mtllib brickCeilx1.mtl

#
# object brick_ceil_x1
#

v  750.0000 300.0000 50.0000
v  850.0000 300.0000 50.0000
v  850.0000 300.0000 150.0000
v  750.0000 300.0000 150.0000
# 4 vertices

vn 0.0000 -1.0000 -0.0000
# 1 vertex normals

vt 0.2500 0.8000 0.5000
vt 0.7500 0.8000 0.5000
vt 0.7500 0.3000 0.5000
vt 0.2500 0.3000 0.5000
# 4 texture coords

g brick_ceil_x1
usemtl wallOldBrick
f 1/1/1 2/2/1 3/3/1 
f 3/3/1 4/4/1 1/1/1 
# 2 faces

