# 3ds Max Wavefront OBJ Exporter v0.97b - (c)2007 guruware
# File Created: 19.11.2017 15:30:48

mtllib brickWallx1.mtl

#
# object brick_wall_x1
#

v  0.0000 0.0000 -86.2727
v  200.0000 0.0000 -86.2727
v  200.0000 300.0000 -86.2727
v  0.0000 300.0000 -86.2727
# 4 vertices

vn 0.0000 -0.0000 1.0000
# 1 vertex normals

vt 0.0219 0.9782 0.5000
vt 1.0219 0.9782 0.5000
vt 1.0219 -0.5218 0.5000
vt 0.0219 -0.5218 0.5000
# 4 texture coords

g brick_wall_x1
usemtl wallOldBrick
f 1/1/1 2/2/1 3/3/1 
f 3/3/1 4/4/1 1/1/1 
# 2 faces

