# 3ds Max Wavefront OBJ Exporter v0.97b - (c)2007 guruware
# File Created: 15.02.2018 22:36:44

mtllib cavaleryReliefWall.mtl

#
# object cavaleryRelief
#

v  1253.4496 1.9816 455.2698
v  1313.3077 1.9816 455.2698
v  1313.3077 65.4348 455.2698
v  1253.4496 65.4348 455.2698
v  1553.4496 1.9816 455.2698
v  1553.4496 65.4348 455.2698
v  1787.2271 1.9816 455.2698
v  1787.2271 65.4348 455.2698
v  1853.4496 1.9816 455.2698
v  1853.4496 65.4348 455.2698
v  1313.3077 234.2172 455.2698
v  1253.4496 234.2172 455.2698
v  1313.3077 65.4348 445.2698
v  1553.4496 65.4348 445.2698
v  1553.4496 235.5731 445.2698
v  1313.3077 234.2172 445.2698
v  1787.2271 65.4348 445.2698
v  1787.2271 235.5731 445.2698
v  1853.4496 235.5731 455.2698
v  1787.2271 235.5731 455.2698
v  1313.3077 301.9816 455.2698
v  1253.4496 301.9816 455.2698
v  1553.4496 235.5731 455.2698
v  1553.4496 301.9816 455.2698
v  1787.2271 301.9816 455.2698
v  1853.4496 301.9816 455.2698
# 26 vertices

vn -0.0000 -0.0000 1.0000
vn 0.0000 -0.0000 1.0000
vn 0.0000 1.0000 0.0000
vn -1.0000 0.0000 -0.0000
vn 0.0000 -1.0000 -0.0000
vn 0.0056 -1.0000 -0.0000
vn 1.0000 0.0000 -0.0000
# 7 vertex normals

vt -0.9843 -0.1923 0.3144
vt -0.6850 -0.1923 0.3144
vt -0.6850 0.1250 0.8354
vt -0.9843 0.1250 0.8354
vt 0.5157 -0.1923 0.3144
vt 0.5157 0.1250 0.8354
vt 1.6846 -0.1923 0.3144
vt 1.6846 0.1250 0.8354
vt 2.0157 -0.1923 0.3144
vt 2.0157 0.1250 0.8354
vt -0.6850 0.9689 -0.1452
vt -0.9843 0.9689 -0.1452
vt 0.0000 0.0000 1.0000
vt 1.0000 0.0000 1.0000
vt 1.0000 1.0000 0.0000
vt 0.0000 0.9920 0.2500
vt 0.0000 1.0000 0.0000
vt 2.0157 0.9757 -0.1646
vt 1.6846 0.9757 -0.1646
vt -0.6850 1.3077 0.3144
vt -0.9843 1.3077 0.3144
vt 0.5157 0.9757 -0.1646
vt 0.5157 1.3077 0.3144
vt 1.6846 1.3077 0.3144
vt 2.0157 1.3077 0.3144
vt -0.1929 -0.4024 0.5000
vt 1.0078 -0.4024 0.5000
vt 1.0078 -0.4524 0.5000
vt -0.1929 -0.4524 0.5000
vt 2.1767 -0.4024 0.5000
vt 2.1767 -0.4524 0.5000
vt 0.4431 0.1255 0.5000
vt 0.4431 0.9762 0.5000
vt 0.4931 0.9762 0.5000
vt 0.4931 0.1255 0.5000
vt 1.8433 -0.0275 0.4322
vt 0.6744 -0.0275 0.4322
vt 0.6744 -0.0775 0.4322
vt 1.8433 -0.0775 0.4322
vt -0.5263 -0.0275 0.5678
vt -0.5263 -0.0775 0.5678
vt 0.4979 1.3059 0.5000
vt 0.4979 0.4619 0.5000
vt 0.4479 0.4619 0.5000
vt 0.4479 1.3059 0.5000
# 45 texture coords

g cavaleryRelief
usemtl wallOldBrick
f 1/1/1 2/2/1 3/3/1 
f 3/3/1 4/4/1 1/1/1 
f 2/2/1 5/5/2 6/6/2 
f 6/6/2 3/3/1 2/2/1 
f 5/5/2 7/7/1 8/8/2 
f 8/8/2 6/6/2 5/5/2 
f 7/7/1 9/9/1 10/10/1 
f 10/10/1 8/8/2 7/7/1 
f 4/4/1 3/3/1 11/11/2 
f 11/11/2 12/12/1 4/4/1 
usemtl cavalery1Relief
f 13/13/2 14/14/2 15/15/2 
f 15/15/2 16/16/2 13/13/2 
usemtl cavalery2Relief
f 14/13/2 17/14/2 18/15/2 
f 18/15/2 15/17/2 14/13/2 
usemtl wallOldBrick
f 8/8/2 10/10/1 19/18/2 
f 19/18/2 20/19/1 8/8/2 
f 12/12/1 11/11/2 21/20/1 
f 21/20/1 22/21/1 12/12/1 
f 11/11/2 23/22/2 24/23/2 
f 24/23/2 21/20/1 11/11/2 
f 23/22/2 20/19/1 25/24/1 
f 25/24/1 24/23/2 23/22/2 
f 20/19/1 19/18/2 26/25/1 
f 26/25/1 25/24/1 20/19/1 
f 3/26/3 6/27/3 14/28/3 
f 14/28/3 13/29/3 3/26/3 
f 6/27/3 8/30/3 17/31/3 
f 17/31/3 14/28/3 6/27/3 
f 8/32/4 20/33/4 18/34/4 
f 18/34/4 17/35/4 8/32/4 
f 20/36/5 23/37/5 15/38/5 
f 15/38/5 18/39/5 20/36/5 
f 23/37/6 11/40/6 16/41/6 
f 16/41/6 15/38/6 23/37/6 
f 11/42/7 3/43/7 13/44/7 
f 13/44/7 16/45/7 11/42/7 
# 36 faces

