# 3ds Max Wavefront OBJ Exporter v0.97b - (c)2007 guruware
# File Created: 19.11.2017 14:51:21

mtllib heighBrickWall.mtl

#
# object brick_wall_longx2
#

v  -1808.2927 0.0000 -0.0000
v  -1408.2927 0.0000 -0.0000
v  -1408.2927 500.0000 0.0000
v  -1808.2927 500.0000 0.0000
# 4 vertices

vn 0.0000 -0.0000 1.0000
# 1 vertex normals

vt -0.5000 -0.7019 0.9519
vt 1.5000 -0.7019 0.9519
vt 1.5000 1.7981 -0.0481
vt -0.5000 1.7981 -0.0481
# 4 texture coords

g brick_wall_longx2
usemtl wallOldBrick
f 1/1/1 2/2/1 3/3/1 
f 3/3/1 4/4/1 1/1/1 
# 2 faces

