# 3ds Max Wavefront OBJ Exporter v0.97b - (c)2007 guruware
# File Created: 13.12.2017 21:14:57

mtllib pointLight.mtl

#
# object point_light
#

v  12.0897 -29.3545 6.9798
v  13.9599 -29.3545 -0.0001
v  13.9599 -3.4687 -0.0001
v  13.1554 -4.5399 3.0023
v  12.0897 -3.5206 6.9798
v  6.9800 -29.3545 12.0895
v  10.6093 -4.4412 8.4601
v  6.9800 -3.6760 12.0895
v  0.0000 -29.3545 13.9597
v  -6.9799 -29.3545 12.0895
v  -12.0896 -29.3545 6.9798
v  -13.9599 -29.3545 -0.0001
v  -12.0896 -29.3545 -6.9801
v  -6.9799 -29.3545 -12.0898
v  0.0000 -29.3545 -13.9600
v  6.9800 -29.3545 -12.0898
v  12.0897 -29.3545 -6.9801
v  12.0897 -3.5207 -6.9801
v  13.1554 -4.5400 -3.0028
v  5.9548 -4.2412 12.3642
v  0.0004 -3.9343 13.9597
v  0.0000 -3.9341 13.9597
v  -5.9541 -4.2410 12.3643
v  -6.9799 -3.6755 12.0895
v  -10.6090 -4.4406 8.4604
v  -12.0896 -3.5198 6.9798
v  -13.1553 -4.5391 3.0024
v  -13.9599 -3.4678 -0.0001
v  -13.1553 -4.5392 -3.0029
v  -12.0896 -3.5199 -6.9801
v  -10.6089 -4.4408 -8.4608
v  -6.9799 -3.6757 -12.0898
v  -5.9540 -4.2412 -12.3647
v  0.0000 -3.9343 -13.9600
v  0.0004 -3.9346 -13.9599
v  5.9547 -4.2415 -12.3645
v  6.9800 -3.6763 -12.0898
v  10.6092 -4.4414 -8.4605
v  0.0004 57.0961 -0.0003
v  0.0004 54.1251 -13.0168
v  -5.6473 54.1251 -11.7277
v  -10.1764 54.1251 -8.1159
v  5.6480 54.1251 -11.7277
v  0.0004 45.8008 -23.4552
v  -10.1764 45.8008 -21.1324
v  -12.6898 54.1251 -2.8967
v  -18.3375 45.8008 -14.6242
v  10.1771 54.1251 -8.1159
v  10.1771 45.8008 -21.1324
v  0.0004 33.7717 -29.2481
v  -12.6898 33.7717 -26.3516
v  -12.6898 54.1251 2.8962
v  -22.8665 45.8008 -5.2195
v  -22.8665 33.7717 -18.2360
v  12.6905 54.1251 -2.8967
v  18.3382 45.8008 -14.6242
v  12.6905 33.7717 -26.3517
v  0.0004 20.4204 -29.2481
v  -12.6898 20.4204 -26.3516
v  -10.1764 54.1251 8.1154
v  -22.8665 45.8008 5.2190
v  -28.5142 33.7717 -6.5085
v  -22.8665 20.4204 -18.2360
v  12.6905 54.1251 2.8962
v  22.8672 45.8008 -5.2195
v  22.8672 33.7717 -18.2360
v  12.6905 20.4204 -26.3517
v  0.0004 8.3914 -23.4552
v  -10.1764 8.3914 -21.1324
v  -5.6473 54.1251 11.7272
v  -18.3375 45.8008 14.6237
v  -28.5142 33.7717 6.5080
v  -28.5142 20.4204 -6.5085
v  -18.3375 8.3914 -14.6242
v  10.1771 54.1251 8.1154
v  22.8672 45.8008 5.2190
v  28.5149 33.7717 -6.5085
v  22.8672 20.4204 -18.2360
v  10.1771 8.3914 -21.1324
v  0.0004 54.1251 13.0163
v  -10.1764 45.8008 21.1319
v  -22.8665 33.7717 18.2355
v  -28.5142 20.4204 6.5080
v  -22.8665 8.3914 -5.2195
v  5.6480 54.1251 11.7272
v  18.3382 45.8008 14.6237
v  28.5149 33.7717 6.5080
v  28.5149 20.4204 -6.5085
v  18.3382 8.3914 -14.6242
v  0.0004 45.8008 23.4547
v  -12.6898 33.7717 26.3511
v  -22.8665 20.4204 18.2355
v  -22.8665 8.3914 5.2190
v  10.1771 45.8008 21.1319
v  22.8673 33.7717 18.2355
v  28.5149 20.4204 6.5080
v  22.8672 8.3914 -5.2195
v  0.0004 33.7717 29.2476
v  -12.6898 20.4204 26.3511
v  -18.3375 8.3914 14.6237
v  12.6905 33.7717 26.3511
v  22.8673 20.4204 18.2355
v  22.8672 8.3914 5.2190
v  0.0004 20.4204 29.2476
v  -10.1764 8.3914 21.1319
v  12.6905 20.4204 26.3511
v  18.3382 8.3914 14.6237
v  0.0004 8.3914 23.4547
v  10.1771 8.3914 21.1319
v  -1.0000 -29.4174 -1.0000
v  1.0000 -29.4174 -1.0000
v  1.0000 -29.4174 1.0000
v  -1.0000 -29.4174 1.0000
v  1.0000 19.5826 1.0000
v  -1.0000 19.5826 1.0000
v  -1.0000 19.5826 -0.0000
v  -1.0000 21.5826 -0.0000
v  -1.0000 21.5826 1.0000
v  -1.0000 70.5826 1.0000
v  -1.0000 70.5826 -1.0000
v  1.0000 70.5826 -1.0000
v  1.0000 21.5826 -1.0000
v  -1.0000 21.5826 -1.0000
v  -1.0000 19.5826 -1.0000
v  1.0000 19.5826 -1.0000
v  1.0000 70.5826 1.0000
v  1.0000 21.5826 1.0000
v  1.0000 21.5826 -0.0000
v  -50.0000 21.5826 -0.0000
v  -50.0000 19.5826 -0.0000
v  -1.0000 19.5826 2.0000
v  -50.0000 19.5826 2.0000
v  -50.0000 21.5826 2.0000
v  50.0000 21.5826 2.0000
v  50.0000 21.5826 -0.0000
v  -1.0000 19.5826 50.0000
v  -1.0000 21.5826 50.0000
v  -1.0000 21.5826 2.0000
v  1.0000 21.5826 2.0000
v  1.0000 19.5826 2.0000
v  50.0000 19.5826 2.0000
v  50.0000 19.5826 -0.0000
v  1.0000 19.5826 -0.0000
v  1.0000 19.5826 50.0000
v  1.0000 19.5826 -50.0000
v  -1.0000 19.5826 -50.0000
v  1.0000 21.5826 50.0000
v  1.0000 21.5826 -50.0000
v  -1.0000 21.5826 -50.0000
# 149 vertices

vn 0.8660 -0.0000 0.5000
vn 1.0000 -0.0000 -0.0000
vn 0.9659 -0.0000 0.2588
vn 0.8751 -0.0000 0.4839
vn 0.5000 -0.0000 0.8660
vn 0.7071 -0.0000 0.7071
vn 0.5313 -0.0000 0.8472
vn 0.0000 -1.0000 -0.0000
vn 0.8660 -0.0000 -0.5000
vn 0.8751 -0.0000 -0.4839
vn 0.9659 -0.0000 -0.2588
vn 0.0000 -0.0000 1.0000
vn 0.2588 -0.0000 0.9659
vn 0.2585 -0.0000 0.9660
vn -0.0536 0.0000 0.9986
vn -0.5000 0.0000 0.8660
vn -0.2588 0.0000 0.9659
vn -0.5313 0.0000 0.8472
vn -0.8660 0.0000 0.5000
vn -0.7071 0.0000 0.7071
vn -0.8751 0.0000 0.4839
vn -1.0000 0.0000 0.0000
vn -0.9659 0.0000 0.2588
vn -0.8660 0.0000 -0.5000
vn -0.9659 0.0000 -0.2588
vn -0.8751 0.0000 -0.4839
vn -0.5000 0.0000 -0.8660
vn -0.7071 0.0000 -0.7071
vn -0.5313 0.0000 -0.8472
vn -0.0000 0.0000 -1.0000
vn -0.2588 0.0000 -0.9659
vn -0.0531 0.0001 -0.9986
vn 0.5000 0.0000 -0.8660
vn 0.2596 0.0002 -0.9657
vn 0.2588 0.0000 -0.9659
vn 0.5313 -0.0000 -0.8472
vn 0.7071 -0.0000 -0.7071
vn 0.0000 1.0000 0.0000
vn -0.0000 0.8885 -0.4589
vn -0.1991 0.8885 -0.4135
vn -0.3588 0.8885 -0.2861
vn 0.1991 0.8885 -0.4135
vn -0.0000 0.6085 -0.7935
vn -0.3443 0.6085 -0.7150
vn -0.4474 0.8885 -0.1021
vn -0.6204 0.6085 -0.4948
vn 0.3588 0.8885 -0.2861
vn 0.3443 0.6085 -0.7150
vn -0.0000 0.2160 -0.9764
vn -0.4236 0.2160 -0.8797
vn -0.4474 0.8885 0.1021
vn -0.7737 0.6085 -0.1766
vn -0.7634 0.2160 -0.6088
vn 0.4474 0.8885 -0.1021
vn 0.6204 0.6085 -0.4948
vn 0.4236 0.2160 -0.8797
vn -0.0000 -0.2160 -0.9764
vn -0.4236 -0.2160 -0.8797
vn -0.3588 0.8885 0.2861
vn -0.7737 0.6085 0.1766
vn -0.9519 0.2160 -0.2173
vn -0.7634 -0.2160 -0.6088
vn 0.4474 0.8885 0.1021
vn 0.7737 0.6085 -0.1766
vn 0.7634 0.2160 -0.6088
vn 0.4236 -0.2160 -0.8797
vn 0.0000 -0.5184 -0.8551
vn -0.3710 -0.5184 -0.7704
vn -0.1991 0.8885 0.4135
vn -0.6204 0.6085 0.4948
vn -0.9519 0.2160 0.2173
vn -0.9519 -0.2160 -0.2173
vn -0.6686 -0.5184 -0.5332
vn 0.3588 0.8885 0.2861
vn 0.7737 0.6085 0.1766
vn 0.9519 0.2160 -0.2173
vn 0.7634 -0.2160 -0.6088
vn 0.3710 -0.5184 -0.7704
vn 0.0517 -0.6095 -0.7911
vn -0.1776 -0.6006 -0.7796
vn -0.3096 -0.6098 -0.7295
vn -0.0000 0.8885 0.4589
vn -0.3443 0.6085 0.7150
vn -0.7634 0.2160 0.6088
vn -0.9519 -0.2160 0.2173
vn -0.8337 -0.5184 -0.1903
vn -0.4985 -0.6005 -0.6252
vn -0.6049 -0.6101 -0.5117
vn 0.1991 0.8885 0.4135
vn 0.6204 0.6085 0.4948
vn 0.9519 0.2160 0.2173
vn 0.9519 -0.2160 -0.2173
vn 0.6686 -0.5184 -0.5332
vn 0.3096 -0.6098 -0.7295
vn 0.0000 0.6085 0.7935
vn -0.4236 0.2160 0.8797
vn -0.7634 -0.2160 0.6088
vn -0.8337 -0.5184 0.1903
vn -0.7204 -0.6005 -0.3469
vn -0.7706 -0.6102 -0.1838
vn 0.3443 0.6085 0.7150
vn 0.7634 0.2160 0.6088
vn 0.9519 -0.2160 0.2173
vn 0.8337 -0.5184 -0.1903
vn 0.6049 -0.6101 -0.5117
vn 0.4985 -0.6005 -0.6252
vn 0.0000 0.2160 0.9764
vn -0.4236 -0.2160 0.8797
vn -0.6686 -0.5184 0.5332
vn -0.7996 -0.6005 -0.0000
vn -0.7706 -0.6102 0.1838
vn 0.4236 0.2160 0.8797
vn 0.7634 -0.2160 0.6088
vn 0.8337 -0.5184 0.1903
vn 0.7706 -0.6102 -0.1838
vn 0.7204 -0.6005 -0.3469
vn 0.0000 -0.2160 0.9764
vn -0.3710 -0.5184 0.7704
vn -0.7204 -0.6005 0.3469
vn -0.6049 -0.6101 0.5117
vn 0.4236 -0.2160 0.8797
vn 0.6686 -0.5184 0.5332
vn 0.7706 -0.6102 0.1838
vn 0.7996 -0.6005 -0.0000
vn 0.0000 -0.5184 0.8551
vn -0.4985 -0.6005 0.6252
vn -0.3096 -0.6098 0.7295
vn 0.3710 -0.5184 0.7704
vn 0.6049 -0.6101 0.5117
vn 0.7204 -0.6005 0.3469
vn -0.1780 -0.6006 0.7795
vn 0.0513 -0.6095 0.7911
vn 0.3096 -0.6098 0.7295
vn 0.4985 -0.6005 0.6252
vn 0.0000 0.0000 1.0000
vn -1.0000 0.0000 -0.0000
vn 0.0000 0.0000 -1.0000
vn 1.0000 0.0000 -0.0000
vn 0.0000 1.0000 -0.0000
vn -0.0000 -0.0000 1.0000
vn -0.0045 -1.0000 -0.0000
vn 0.0001 -1.0000 -0.0000
vn 0.2153 -0.9765 -0.0000
vn -0.0001 1.0000 0.0000
vn -0.2153 0.9765 0.0000
vn -0.0000 1.0000 0.0000
# 146 vertex normals

vt 0.6667 1.0000 1.0000
vt 0.7500 1.0000 1.0000
vt 0.7500 0.1182 1.0000
vt 0.7142 0.1547 1.0000
vt 0.6667 0.1199 1.0000
vt 0.5833 1.0000 1.0000
vt 0.6425 0.1513 1.0000
vt 0.5833 0.1252 1.0000
vt 0.7500 0.9330 0.2500
vt 0.9330 0.7500 0.2500
vt 1.0000 0.5000 0.2500
vt 0.9330 0.2500 0.2500
vt 0.7500 0.0670 0.2500
vt 0.5000 0.0000 0.2500
vt 0.2500 0.0670 0.2500
vt 0.0670 0.2500 0.2500
vt 0.0000 0.5000 0.2500
vt 0.0670 0.7500 0.2500
vt 0.2500 0.9330 0.2500
vt 0.5000 1.0000 0.2500
vt 0.8333 1.0000 1.0000
vt 0.8333 0.1199 1.0000
vt 0.7858 0.1547 1.0000
vt 0.5000 1.0000 1.0000
vt 0.5711 0.1445 1.0000
vt 0.5000 0.1340 1.0000
vt 0.4167 1.0000 1.0000
vt 0.4289 0.1445 1.0000
vt 0.4167 0.1252 1.0000
vt 0.3333 1.0000 1.0000
vt 0.3575 0.1513 1.0000
vt 0.3333 0.1199 1.0000
vt 0.2500 1.0000 1.0000
vt 0.2858 0.1546 1.0000
vt 0.2500 0.1181 1.0000
vt 0.1667 1.0000 1.0000
vt 0.2141 0.1546 1.0000
vt 0.1667 0.1199 1.0000
vt 0.0833 1.0000 1.0000
vt 0.1425 0.1513 1.0000
vt 0.0833 0.1252 1.0000
vt 0.0000 1.0000 1.0000
vt 0.0711 0.1445 1.0000
vt 0.0000 0.1340 1.0000
vt -0.0833 1.0000 1.0000
vt -0.0000 0.1340 1.0000
vt -0.0711 0.1445 1.0000
vt -0.0833 0.1252 1.0000
vt 0.9167 1.0000 1.0000
vt 0.9167 0.1252 1.0000
vt 0.8575 0.1513 1.0000
vt 0.0000 1.0000 0.0000
vt 0.0000 0.8571 0.0000
vt 0.0714 0.8571 0.0000
vt 0.0714 1.0000 0.0000
vt 0.1429 0.8571 0.0000
vt 0.9286 1.0000 0.0000
vt 0.9286 0.8571 0.0000
vt 1.0000 0.8571 0.0000
vt 0.0000 0.7143 0.0000
vt 0.0714 0.7143 0.0000
vt 0.1429 1.0000 0.0000
vt 0.2143 0.8571 0.0000
vt 0.1429 0.7143 0.0000
vt 0.8571 1.0000 0.0000
vt 0.8571 0.8571 0.0000
vt 0.9286 0.7143 0.0000
vt 1.0000 0.7143 0.0000
vt 0.0000 0.5714 0.0000
vt 0.0714 0.5714 0.0000
vt 0.2143 1.0000 0.0000
vt 0.2857 0.8571 0.0000
vt 0.2143 0.7143 0.0000
vt 0.1429 0.5714 0.0000
vt 0.7857 1.0000 0.0000
vt 0.7857 0.8571 0.0000
vt 0.8571 0.7143 0.0000
vt 0.9286 0.5714 0.0000
vt 1.0000 0.5714 0.0000
vt 0.0000 0.4286 0.0000
vt 0.0714 0.4286 0.0000
vt 0.2857 1.0000 0.0000
vt 0.3571 0.8571 0.0000
vt 0.2857 0.7143 0.0000
vt 0.2143 0.5714 0.0000
vt 0.1429 0.4286 0.0000
vt 0.7143 1.0000 0.0000
vt 0.7143 0.8571 0.0000
vt 0.7857 0.7143 0.0000
vt 0.8571 0.5714 0.0000
vt 0.9286 0.4286 0.0000
vt 1.0000 0.4286 0.0000
vt 0.0000 0.2857 0.0000
vt 0.0714 0.2857 0.0000
vt 0.3571 1.0000 0.0000
vt 0.4286 0.8571 0.0000
vt 0.3571 0.7143 0.0000
vt 0.2857 0.5714 0.0000
vt 0.2143 0.4286 0.0000
vt 0.1429 0.2857 0.0000
vt 0.6429 1.0000 0.0000
vt 0.6429 0.8571 0.0000
vt 0.7143 0.7143 0.0000
vt 0.7857 0.5714 0.0000
vt 0.8571 0.4286 0.0000
vt 0.9286 0.2857 0.0000
vt 1.0000 0.2857 0.0000
vt 0.0000 0.1558 0.0000
vt 0.0714 0.1525 0.0000
vt 0.4286 1.0000 0.0000
vt 0.5000 0.8571 0.0000
vt 0.4286 0.7143 0.0000
vt 0.3571 0.5714 0.0000
vt 0.2857 0.4286 0.0000
vt 0.2143 0.2857 0.0000
vt 0.0837 0.1585 0.0000
vt 0.1429 0.1504 0.0000
vt 0.5714 1.0000 0.0000
vt 0.5714 0.8571 0.0000
vt 0.6429 0.7143 0.0000
vt 0.7143 0.5714 0.0000
vt 0.7857 0.4286 0.0000
vt 0.8571 0.2857 0.0000
vt 1.0000 0.1558 0.0000
vt 0.9286 0.1525 0.0000
vt 0.5000 1.0000 0.0000
vt 0.5000 0.7143 0.0000
vt 0.4286 0.5714 0.0000
vt 0.3571 0.4286 0.0000
vt 0.2857 0.2857 0.0000
vt 0.1657 0.1601 0.0000
vt 0.2143 0.1494 0.0000
vt 0.5714 0.7143 0.0000
vt 0.6429 0.5714 0.0000
vt 0.7143 0.4286 0.0000
vt 0.7857 0.2857 0.0000
vt 0.8571 0.1504 0.0000
vt 0.9163 0.1585 0.0000
vt 0.5000 0.5714 0.0000
vt 0.4286 0.4286 0.0000
vt 0.3571 0.2857 0.0000
vt 0.2500 0.1607 0.0000
vt 0.2857 0.1494 0.0000
vt 0.5714 0.5714 0.0000
vt 0.6429 0.4286 0.0000
vt 0.7143 0.2857 0.0000
vt 0.7857 0.1494 0.0000
vt 0.8343 0.1601 0.0000
vt 0.5000 0.4286 0.0000
vt 0.4286 0.2857 0.0000
vt 0.3343 0.1601 0.0000
vt 0.3571 0.1504 0.0000
vt 0.5714 0.4286 0.0000
vt 0.6429 0.2857 0.0000
vt 0.7143 0.1494 0.0000
vt 0.7500 0.1607 0.0000
vt 0.5000 0.2857 0.0000
vt 0.4163 0.1585 0.0000
vt 0.4286 0.1525 0.0000
vt 0.5714 0.2857 0.0000
vt 0.6429 0.1504 0.0000
vt 0.6657 0.1601 0.0000
vt 0.5000 0.1558 0.0000
vt 0.5714 0.1525 0.0000
vt 0.5837 0.1585 0.0000
vt 1.0000 1.0000 0.0000
vt 0.0000 0.0000 0.0000
vt 1.0000 0.0000 0.0000
vt 1.0000 0.4900 0.0000
vt 0.0000 0.4900 0.0000
vt 0.5000 0.4900 0.0000
vt 0.5000 0.5100 0.0000
vt 1.0000 0.5100 0.0000
vt 0.0000 0.5100 0.0000
vt 0.5100 1.0000 0.0000
vt 0.5100 0.0000 0.0000
vt 0.4900 0.0000 0.0000
vt 0.4900 0.5000 0.0000
vt 0.4900 1.0000 0.0000
vt 0.5100 0.5000 0.0000
vt 0.0000 0.5200 0.0000
vt 1.0000 0.5200 0.0000
vt 1.0000 0.5000 0.0000
vt 0.0000 0.5000 0.0000
# 184 texture coords

g point_light
usemtl pointLIghtSocket
f 1/1/1 2/2/2 3/3/2 
f 1/1/1 3/3/2 4/4/3 
f 5/5/4 1/1/1 4/4/3 
f 6/6/5 1/1/1 5/5/4 
f 6/6/5 5/5/4 7/7/6 
f 8/8/7 6/6/5 7/7/6 
f 1/9/8 6/10/8 9/11/8 
f 9/11/8 10/12/8 11/13/8 
f 11/13/8 12/14/8 13/15/8 
f 9/11/8 11/13/8 13/15/8 
f 13/15/8 14/16/8 15/17/8 
f 15/17/8 16/18/8 17/19/8 
f 13/15/8 15/17/8 17/19/8 
f 9/11/8 13/15/8 17/19/8 
f 1/9/8 9/11/8 17/19/8 
f 2/20/8 1/9/8 17/19/8 
f 2/2/2 17/21/9 18/22/10 
f 2/2/2 18/22/10 19/23/11 
f 3/3/2 2/2/2 19/23/11 
f 9/24/12 6/6/5 8/8/7 
f 9/24/12 8/8/7 20/25/13 
f 9/24/12 20/25/13 21/26/14 
f 22/26/15 9/24/12 21/26/14 
f 10/27/16 9/24/12 22/26/15 
f 10/27/16 22/26/15 23/28/17 
f 24/29/18 10/27/16 23/28/17 
f 11/30/19 10/27/16 24/29/18 
f 11/30/19 24/29/18 25/31/20 
f 26/32/21 11/30/19 25/31/20 
f 12/33/22 11/30/19 26/32/21 
f 12/33/22 26/32/21 27/34/23 
f 28/35/22 12/33/22 27/34/23 
f 13/36/24 12/33/22 28/35/22 
f 13/36/24 28/35/22 29/37/25 
f 30/38/26 13/36/24 29/37/25 
f 14/39/27 13/36/24 30/38/26 
f 14/39/27 30/38/26 31/40/28 
f 32/41/29 14/39/27 31/40/28 
f 15/42/30 14/39/27 32/41/29 
f 15/42/30 32/41/29 33/43/31 
f 34/44/32 15/42/30 33/43/31 
f 16/45/33 15/42/30 34/44/32 
f 16/45/33 34/44/32 35/46/34 
f 16/45/33 35/46/34 36/47/35 
f 37/48/36 16/45/33 36/47/35 
f 17/21/9 16/49/33 37/50/36 
f 17/21/9 37/50/36 38/51/37 
f 18/22/10 17/21/9 38/51/37 
usemtl pointLightGlass
f 39/52/38 40/53/39 41/54/40 
f 39/55/38 41/54/40 42/56/41 
f 39/57/38 43/58/42 40/59/39 
f 44/60/43 45/61/44 41/54/40 
f 41/54/40 40/53/39 44/60/43 
f 39/62/38 42/56/41 46/63/45 
f 45/61/44 47/64/46 42/56/41 
f 42/56/41 41/54/40 45/61/44 
f 39/65/38 48/66/47 43/58/42 
f 49/67/48 44/68/43 40/59/39 
f 40/59/39 43/58/42 49/67/48 
f 50/69/49 51/70/50 45/61/44 
f 45/61/44 44/60/43 50/69/49 
f 39/71/38 46/63/45 52/72/51 
f 47/64/46 53/73/52 46/63/45 
f 46/63/45 42/56/41 47/64/46 
f 51/70/50 54/74/53 47/64/46 
f 47/64/46 45/61/44 51/70/50 
f 39/75/38 55/76/54 48/66/47 
f 56/77/55 49/67/48 43/58/42 
f 43/58/42 48/66/47 56/77/55 
f 57/78/56 50/79/49 44/68/43 
f 44/68/43 49/67/48 57/78/56 
f 58/80/57 59/81/58 51/70/50 
f 51/70/50 50/69/49 58/80/57 
f 39/82/38 52/72/51 60/83/59 
f 53/73/52 61/84/60 52/72/51 
f 52/72/51 46/63/45 53/73/52 
f 54/74/53 62/85/61 53/73/52 
f 53/73/52 47/64/46 54/74/53 
f 59/81/58 63/86/62 54/74/53 
f 54/74/53 51/70/50 59/81/58 
f 39/87/38 64/88/63 55/76/54 
f 65/89/64 56/77/55 48/66/47 
f 48/66/47 55/76/54 65/89/64 
f 66/90/65 57/78/56 49/67/48 
f 49/67/48 56/77/55 66/90/65 
f 67/91/66 58/92/57 50/79/49 
f 50/79/49 57/78/56 67/91/66 
f 68/93/67 69/94/68 59/81/58 
f 59/81/58 58/80/57 68/93/67 
f 39/95/38 60/83/59 70/96/69 
f 61/84/60 71/97/70 60/83/59 
f 60/83/59 52/72/51 61/84/60 
f 62/85/61 72/98/71 61/84/60 
f 61/84/60 53/73/52 62/85/61 
f 63/86/62 73/99/72 62/85/61 
f 62/85/61 54/74/53 63/86/62 
f 69/94/68 74/100/73 63/86/62 
f 63/86/62 59/81/58 69/94/68 
f 39/101/38 75/102/74 64/88/63 
f 76/103/75 65/89/64 55/76/54 
f 55/76/54 64/88/63 76/103/75 
f 77/104/76 66/90/65 56/77/55 
f 56/77/55 65/89/64 77/104/76 
f 78/105/77 67/91/66 57/78/56 
f 57/78/56 66/90/65 78/105/77 
f 79/106/78 68/107/67 58/92/57 
f 58/92/57 67/91/66 79/106/78 
f 68/93/67 35/108/79 34/108/80 
f 68/93/67 34/108/80 33/109/81 
f 68/93/67 33/109/81 69/94/68 
f 39/110/38 70/96/69 80/111/82 
f 71/97/70 81/112/83 70/96/69 
f 70/96/69 60/83/59 71/97/70 
f 72/98/71 82/113/84 71/97/70 
f 71/97/70 61/84/60 72/98/71 
f 73/99/72 83/114/85 72/98/71 
f 72/98/71 62/85/61 73/99/72 
f 74/100/73 84/115/86 73/99/72 
f 73/99/72 63/86/62 74/100/73 
f 69/94/68 33/109/81 32/116/87 
f 69/94/68 32/116/87 31/117/88 
f 69/94/68 31/117/88 74/100/73 
f 39/118/38 85/119/89 75/102/74 
f 86/120/90 76/103/75 64/88/63 
f 64/88/63 75/102/74 86/120/90 
f 87/121/91 77/104/76 65/89/64 
f 65/89/64 76/103/75 87/121/91 
f 88/122/92 78/105/77 66/90/65 
f 66/90/65 77/104/76 88/122/92 
f 89/123/93 79/106/78 67/91/66 
f 67/91/66 78/105/77 89/123/93 
f 35/124/79 68/107/67 79/106/78 
f 79/106/78 36/125/94 35/124/79 
f 39/126/38 80/111/82 85/119/89 
f 81/112/83 90/127/95 80/111/82 
f 80/111/82 70/96/69 81/112/83 
f 82/113/84 91/128/96 81/112/83 
f 81/112/83 71/97/70 82/113/84 
f 83/114/85 92/129/97 82/113/84 
f 82/113/84 72/98/71 83/114/85 
f 84/115/86 93/130/98 83/114/85 
f 83/114/85 73/99/72 84/115/86 
f 74/100/73 31/117/88 30/131/99 
f 74/100/73 30/131/99 29/132/100 
f 74/100/73 29/132/100 84/115/86 
f 94/133/101 86/120/90 75/102/74 
f 75/102/74 85/119/89 94/133/101 
f 95/134/102 87/121/91 76/103/75 
f 76/103/75 86/120/90 95/134/102 
f 96/135/103 88/122/92 77/104/76 
f 77/104/76 87/121/91 96/135/103 
f 97/136/104 89/123/93 78/105/77 
f 78/105/77 88/122/92 97/136/104 
f 89/123/93 38/137/105 37/138/106 
f 89/123/93 37/138/106 36/125/94 
f 89/123/93 36/125/94 79/106/78 
f 90/127/95 94/133/101 85/119/89 
f 85/119/89 80/111/82 90/127/95 
f 91/128/96 98/139/107 90/127/95 
f 90/127/95 81/112/83 91/128/96 
f 92/129/97 99/140/108 91/128/96 
f 91/128/96 82/113/84 92/129/97 
f 93/130/98 100/141/109 92/129/97 
f 92/129/97 83/114/85 93/130/98 
f 84/115/86 29/132/100 28/142/110 
f 84/115/86 28/142/110 27/143/111 
f 84/115/86 27/143/111 93/130/98 
f 101/144/112 95/134/102 86/120/90 
f 86/120/90 94/133/101 101/144/112 
f 102/145/113 96/135/103 87/121/91 
f 87/121/91 95/134/102 102/145/113 
f 103/146/114 97/136/104 88/122/92 
f 88/122/92 96/135/103 103/146/114 
f 97/136/104 19/147/115 18/148/116 
f 97/136/104 18/148/116 38/137/105 
f 97/136/104 38/137/105 89/123/93 
f 98/139/107 101/144/112 94/133/101 
f 94/133/101 90/127/95 98/139/107 
f 99/140/108 104/149/117 98/139/107 
f 98/139/107 91/128/96 99/140/108 
f 100/141/109 105/150/118 99/140/108 
f 99/140/108 92/129/97 100/141/109 
f 93/130/98 27/143/111 26/151/119 
f 93/130/98 26/151/119 25/152/120 
f 93/130/98 25/152/120 100/141/109 
f 106/153/121 102/145/113 95/134/102 
f 95/134/102 101/144/112 106/153/121 
f 107/154/122 103/146/114 96/135/103 
f 96/135/103 102/145/113 107/154/122 
f 103/146/114 4/155/123 3/156/124 
f 103/146/114 3/156/124 19/147/115 
f 103/146/114 19/147/115 97/136/104 
f 104/149/117 106/153/121 101/144/112 
f 101/144/112 98/139/107 104/149/117 
f 105/150/118 108/157/125 104/149/117 
f 104/149/117 99/140/108 105/150/118 
f 100/141/109 25/152/120 24/158/126 
f 100/141/109 24/158/126 23/159/127 
f 100/141/109 23/159/127 105/150/118 
f 109/160/128 107/154/122 102/145/113 
f 102/145/113 106/153/121 109/160/128 
f 107/154/122 7/161/129 5/162/130 
f 107/154/122 5/162/130 4/155/123 
f 107/154/122 4/155/123 103/146/114 
f 108/157/125 109/160/128 106/153/121 
f 106/153/121 104/149/117 108/157/125 
f 105/150/118 23/159/127 22/163/131 
f 105/150/118 22/163/131 21/163/132 
f 105/150/118 21/163/132 108/157/125 
f 109/160/128 20/164/133 8/165/134 
f 109/160/128 8/165/134 7/161/129 
f 109/160/128 7/161/129 107/154/122 
f 109/160/128 108/157/125 21/163/132 
f 21/163/132 20/164/133 109/160/128 
usemtl pointLightCross
f 110/166/8 111/52/8 112/167/8 
f 112/167/8 113/168/8 110/166/8 
f 112/168/135 114/169/135 115/170/135 
f 115/170/135 115/170/135 115/170/135 
f 112/168/135 115/170/135 115/170/135 
f 113/167/135 112/168/135 115/170/135 
f 110/167/136 113/168/136 115/169/136 
f 110/167/136 115/169/136 116/171/136 
f 117/172/136 118/173/136 119/166/136 
f 117/172/136 119/166/136 120/52/136 
f 116/171/136 117/172/136 120/52/136 
f 110/167/136 116/171/136 120/52/136 
f 120/166/137 121/52/137 122/174/137 
f 120/166/137 122/174/137 123/173/137 
f 110/168/137 120/166/137 123/173/137 
f 110/168/137 123/173/137 124/169/137 
f 111/167/137 110/168/137 124/169/137 
f 111/167/137 124/169/137 125/170/137 
f 111/168/138 125/169/138 114/170/138 
f 114/170/138 112/167/138 111/168/138 
f 126/166/135 119/52/135 118/174/135 
f 118/174/135 127/173/135 126/166/135 
f 126/168/139 121/166/139 120/52/139 
f 120/52/139 119/167/139 126/168/139 
f 122/173/138 121/166/138 126/52/138 
f 126/52/138 127/174/138 128/172/138 
f 122/173/138 126/52/138 128/172/138 
f 122/173/138 128/172/138 128/172/138 
f 129/166/137 117/175/137 116/176/137 
f 116/176/137 130/168/137 129/166/137 
f 130/167/8 116/177/8 115/178/8 
f 115/178/8 115/178/8 131/179/8 
f 130/167/8 115/178/8 131/179/8 
f 130/167/8 131/179/8 132/52/8 
f 130/168/136 132/166/136 133/52/136 
f 133/52/136 129/167/136 130/168/136 
f 118/180/139 117/176/139 129/168/139 
f 118/180/139 129/168/139 133/166/139 
f 127/178/139 118/180/139 133/166/139 
f 127/178/139 133/166/139 134/52/139 
f 128/177/139 127/178/139 134/52/139 
f 135/167/139 128/177/139 134/52/139 
f 136/166/136 137/52/136 138/181/136 
f 136/166/136 138/181/136 131/182/136 
f 115/173/136 136/166/136 131/182/136 
f 115/173/136 131/182/136 115/173/136 
f 139/175/12 140/176/12 141/168/12 
f 139/175/12 141/168/12 134/166/12 
f 138/179/140 139/175/12 134/166/12 
f 138/179/140 134/166/12 133/52/140 
f 131/177/140 138/179/140 133/52/140 
f 132/167/12 131/177/140 133/52/140 
f 135/168/138 134/166/138 141/52/138 
f 141/52/138 142/167/138 135/168/138 
f 128/179/30 135/52/137 142/167/137 
f 142/167/137 143/177/137 128/179/30 
f 128/179/30 142/167/137 128/179/30 
f 128/179/30 128/179/30 128/179/137 
f 144/166/8 136/52/8 115/174/8 
f 144/166/8 115/174/8 114/173/141 
f 145/168/142 144/166/8 114/173/141 
f 145/168/142 114/173/141 125/169/143 
f 146/167/8 145/168/142 125/169/143 
f 146/167/8 125/169/143 124/170/8 
f 144/168/135 147/166/135 137/52/135 
f 137/52/135 136/167/135 144/168/135 
f 137/166/38 147/52/38 139/181/38 
f 139/181/38 138/182/38 137/166/38 
f 145/167/138 148/168/138 128/183/138 
f 145/167/138 128/183/138 143/184/138 
f 140/181/138 139/182/138 147/166/138 
f 140/181/138 147/166/138 144/52/138 
f 143/184/138 140/181/138 144/52/138 
f 145/167/138 143/184/138 144/52/138 
f 142/168/8 141/166/8 140/175/8 
f 140/175/8 143/176/8 142/168/8 
f 148/167/144 149/168/38 123/169/38 
f 148/167/144 123/169/38 122/170/145 
f 148/167/144 122/170/145 128/184/146 
f 148/167/144 128/184/146 128/184/38 
f 146/168/136 124/169/136 123/170/136 
f 123/170/136 149/167/136 146/168/136 
f 149/166/137 148/52/137 145/167/137 
f 145/167/137 146/168/137 149/166/137 
# 298 faces

