# 3ds Max Wavefront OBJ Exporter v0.97b - (c)2007 guruware
# File Created: 19.11.2017 15:27:58

mtllib sandstoneWallWithTwoColumns.mtl

#
# object panel_wall_two_sided
#

v  -220.2097 0.0000 -346.2065
v  249.7903 0.0000 -346.2065
v  249.7903 700.0000 -346.2065
v  -220.2097 700.0000 -346.2065
v  249.7905 0.0001 -346.2062
v  249.7905 0.0001 -316.2062
v  249.7905 700.0001 -316.2062
v  249.7905 700.0001 -346.2062
v  379.7905 0.0001 -316.2062
v  379.7905 700.0001 -316.2062
v  379.7905 0.0001 -346.2062
v  379.7905 700.0001 -346.2062
v  -350.2095 0.0001 -346.2062
v  -350.2095 0.0001 -316.2062
v  -350.2095 700.0001 -316.2062
v  -350.2095 700.0001 -346.2062
v  -220.2095 0.0001 -316.2062
v  -220.2095 700.0001 -316.2062
v  -220.2095 0.0001 -346.2062
v  -220.2095 700.0001 -346.2062
# 20 vertices

vn 0.0000 -0.0000 1.0000
vn -1.0000 0.0000 -0.0000
vn 1.0000 0.0000 -0.0000
vn -0.7071 -0.0000 0.7071
vn 0.7071 -0.0000 0.7071
# 5 vertex normals

vt -0.6750 -0.6412 0.5000
vt 1.6750 -0.6412 0.5000
vt 1.6750 2.8588 0.5000
vt -0.6750 2.8588 0.5000
vt 0.3846 -2.0077 0.5000
vt 0.6154 -2.0077 0.5000
vt 0.6154 3.3769 0.5000
vt 0.3846 3.3769 0.5000
vt 0.0000 3.0000 0.5000
vt 1.0000 3.0000 0.4999
vt 1.0000 -2.3846 0.5000
vt 0.0000 -2.3846 0.5001
vt 0.3846 3.0001 0.5000
vt 0.6154 3.0001 0.5000
vt 0.6154 -2.3845 0.5000
vt 0.3846 -2.3845 0.5000
vt 0.3846 -2.5158 0.5000
vt 0.6154 -2.5158 0.5000
vt 0.6154 2.8688 0.5000
vt 0.3846 2.8688 0.5000
vt 0.9999 3.0049 -0.5503
vt 0.0001 3.0049 1.5502
vt 0.0001 -2.3797 1.5503
vt 0.9999 -2.3797 -0.5502
vt 0.3846 -1.5142 0.5000
vt 0.6154 -1.5142 0.5000
vt 0.6154 3.8704 0.5000
vt 0.3846 3.8704 0.5000
# 28 texture coords

g panel_wall_two_sided
usemtl peschanil
f 1/1/1 2/2/1 3/3/1 
f 3/3/1 4/4/1 1/1/1 
usemtl round_plar_panel
f 5/5/2 6/6/2 7/7/2 
f 7/7/2 8/8/2 5/5/2 
f 6/9/1 9/10/1 10/11/1 
f 10/11/1 7/12/1 6/9/1 
f 9/13/3 11/14/3 12/15/3 
f 12/15/3 10/16/3 9/13/3 
f 13/17/2 14/18/4 15/19/4 
f 15/19/4 16/20/2 13/17/2 
f 14/21/4 17/22/5 18/23/5 
f 18/23/5 15/24/4 14/21/4 
f 17/25/5 19/26/3 20/27/3 
f 20/27/3 18/28/5 17/25/5 
# 14 faces

