# 3ds Max Wavefront OBJ Exporter v0.97b - (c)2007 guruware
# File Created: 19.11.2017 15:35:39

mtllib sandStoneWallWithoutColumns.mtl

#
# object panel_wall_
#

v  1378.9629 0.0000 -6.0191
v  1848.9629 0.0000 -6.0191
v  1848.9629 700.0000 -6.0190
v  1378.9629 700.0000 -6.0190
# 4 vertices

vn 0.0000 -0.0000 1.0000
# 1 vertex normals

vt -0.6750 -0.6412 0.5000
vt 1.6750 -0.6412 0.5000
vt 1.6750 2.8588 0.5000
vt -0.6750 2.8588 0.5000
# 4 texture coords

g panel_wall_
usemtl peschanil
f 1/1/1 2/2/1 3/3/1 
f 3/3/1 4/4/1 1/1/1 
# 2 faces

