# 3ds Max Wavefront OBJ Exporter v0.97b - (c)2007 guruware
# File Created: 19.11.2017 15:41:13

mtllib sandstoneWallSmallDoorway.mtl

#
# object panel_wall_two_small_doorway
#

v  3904.0549 0.0001 -743.1999
v  3904.0549 0.0001 -713.2000
v  3904.0549 700.0001 -713.1999
v  3904.0549 700.0001 -743.1999
v  4034.0549 0.0001 -713.2000
v  4034.0549 700.0001 -713.1999
v  4034.0549 0.0001 -743.1999
v  4034.0549 700.0001 -743.1999
v  3304.0549 0.0001 -743.2000
v  3304.0549 0.0001 -713.2000
v  3304.0549 700.0001 -713.1999
v  3304.0549 700.0001 -743.1999
v  3434.0549 0.0001 -713.2000
v  3434.0549 700.0001 -713.1999
v  3434.0549 0.0001 -743.2000
v  3434.0549 700.0001 -743.1999
v  3904.0547 0.0000 -743.2002
v  3904.0547 700.0000 -743.2002
v  3731.2603 700.0000 -743.2002
v  3731.2603 200.5480 -743.2002
v  3731.2603 0.0000 -743.2002
v  3434.0547 700.0000 -743.2002
v  3434.0547 0.0000 -743.2002
v  3601.6655 0.0000 -743.2002
v  3601.6655 200.5480 -743.2002
v  3601.6655 700.0000 -743.2002
# 26 vertices

vn -1.0000 0.0000 -0.0000
vn 0.0000 -0.0000 1.0000
vn 1.0000 0.0000 -0.0000
vn -0.7071 -0.0000 0.7071
vn 0.7071 -0.0000 0.7071
vn -0.0000 -0.0000 1.0000
# 6 vertex normals

vt 0.3846 -2.0077 0.5000
vt 0.6154 -2.0077 0.5000
vt 0.6154 3.3769 0.5000
vt 0.3846 3.3769 0.5000
vt 0.0000 3.0000 0.5000
vt 1.0000 3.0000 0.4999
vt 1.0000 -2.3846 0.5000
vt 0.0000 -2.3846 0.5001
vt 0.3846 3.0001 0.5000
vt 0.6154 3.0001 0.5000
vt 0.6154 -2.3845 0.5000
vt 0.3846 -2.3845 0.5000
vt 0.3846 -2.5158 0.5000
vt 0.6154 -2.5158 0.5000
vt 0.6154 2.8688 0.5000
vt 0.3846 2.8688 0.5000
vt 0.9999 3.0049 -0.5503
vt 0.0001 3.0049 1.5502
vt 0.0001 -2.3797 1.5503
vt 0.9999 -2.3797 -0.5502
vt 0.3846 -1.5142 0.5000
vt 0.6154 -1.5142 0.5000
vt 0.6154 3.8704 0.5000
vt 0.3846 3.8704 0.5000
vt 1.6750 -0.6412 0.5000
vt 1.6750 2.8588 0.5000
vt 0.8110 2.8588 0.5000
vt 0.8110 0.3563 0.5000
vt 0.8110 -0.6412 0.5000
vt -0.6750 2.8588 0.5000
vt -0.6750 -0.6412 0.5000
vt 0.1631 -0.6412 0.5000
vt 0.1631 0.3563 0.5000
vt 0.1631 2.8588 0.5000
# 34 texture coords

g panel_wall_two_small_doorway
usemtl round_plar_panel
f 1/1/1 2/2/1 3/3/1 
f 3/3/1 4/4/1 1/1/1 
f 2/5/2 5/6/2 6/7/2 
f 6/7/2 3/8/2 2/5/2 
f 5/9/3 7/10/3 8/11/3 
f 8/11/3 6/12/3 5/9/3 
f 9/13/1 10/14/4 11/15/4 
f 11/15/4 12/16/1 9/13/1 
f 10/17/4 13/18/5 14/19/5 
f 14/19/5 11/20/4 10/17/4 
f 13/21/5 15/22/3 16/23/3 
f 16/23/3 14/24/5 13/21/5 
usemtl peschanil
f 17/25/6 18/26/2 19/27/6 
f 17/25/6 19/27/6 20/28/6 
f 21/29/2 17/25/6 20/28/6 
f 22/30/2 23/31/2 24/32/2 
f 22/30/2 24/32/2 25/33/2 
f 26/34/2 22/30/2 25/33/2 
f 19/27/6 26/34/2 25/33/2 
f 25/33/2 20/28/6 19/27/6 
# 20 faces

