# 3ds Max Wavefront OBJ Exporter v0.97b - (c)2007 guruware
# File Created: 21.09.2017 22:05:32

mtllib testCube.mtl

#
# object Box001
#

v  -63.3128 0.0000 32.2967
v  -63.3128 0.0000 -67.7033
v  36.6872 0.0000 -67.7033
v  36.6872 0.0000 32.2967
v  -63.3128 100.0000 32.2967
v  36.6872 100.0000 32.2967
v  36.6872 100.0000 -67.7033
v  -63.3128 100.0000 -67.7033
v  36.6872 50.0000 32.2967
v  -63.3128 50.0000 32.2967
v  36.6872 50.0000 -67.7033
v  -63.3128 50.0000 -67.7033
# 12 vertices

vn 0.0000 -1.0000 -0.0000
vn 0.0000 1.0000 -0.0000
vn 0.0000 0.0000 1.0000
vn 1.0000 0.0000 -0.0000
vn 0.0000 0.0000 -1.0000
vn -1.0000 0.0000 -0.0000
# 6 vertex normals

vt 1.0000 0.0000 0.0000
vt 1.0000 1.0000 0.0000
vt 0.0000 1.0000 0.0000
vt 0.0000 0.0000 0.0000
vt 1.0000 0.5000 0.0000
vt 0.0000 0.5000 0.0000
# 6 texture coords

g Box001
usemtl peschanil
f 1/1/1 2/2/1 3/3/1 
f 3/3/1 4/4/1 1/1/1 
usemtl round_plar_panel
f 5/4/2 6/1/2 7/2/2 
f 7/2/2 8/3/2 5/4/2 
usemtl peschanil
f 1/4/3 4/1/3 9/5/3 
f 9/5/3 10/6/3 1/4/3 
usemtl round_plar_panel
f 10/6/3 9/5/3 6/2/3 
f 6/2/3 5/3/3 10/6/3 
usemtl peschanil
f 4/4/4 3/1/4 11/5/4 
f 11/5/4 9/6/4 4/4/4 
usemtl round_plar_panel
f 9/6/4 11/5/4 7/2/4 
f 7/2/4 6/3/4 9/6/4 
usemtl peschanil
f 3/4/5 2/1/5 12/5/5 
f 12/5/5 11/6/5 3/4/5 
usemtl round_plar_panel
f 11/6/5 12/5/5 8/2/5 
f 8/2/5 7/3/5 11/6/5 
usemtl peschanil
f 2/4/6 1/1/6 10/5/6 
f 10/5/6 12/6/6 2/4/6 
usemtl round_plar_panel
f 12/6/6 10/5/6 5/2/6 
f 5/2/6 8/3/6 12/6/6 
# 20 faces

